<svg width="63" height="12" viewBox="0 0 63 12" fill="none" xmlns="http://www.w3.org/2000/svg">
<path d="M6.58301 8.68262H2.72754L1.9209 11H0.123047L3.88281 1.04688H5.43457L9.20117 11H7.39648L6.58301 8.68262ZM3.21289 7.28809H6.09766L4.65527 3.15918L3.21289 7.28809ZM9.86426 7.24707C9.86426 6.10775 10.1286 5.19401 10.6572 4.50586C11.1859 3.81315 11.8945 3.4668 12.7832 3.4668C13.5671 3.4668 14.2005 3.74023 14.6836 4.28711V0.5H16.3447V11H14.8408L14.7588 10.2344C14.262 10.8359 13.599 11.1367 12.7695 11.1367C11.9036 11.1367 11.2018 10.7881 10.6641 10.0908C10.1309 9.39355 9.86426 8.44564 9.86426 7.24707ZM11.5254 7.39062C11.5254 8.14258 11.6689 8.73047 11.9561 9.1543C12.2477 9.57357 12.6602 9.7832 13.1934 9.7832C13.8724 9.7832 14.3691 9.48014 14.6836 8.87402V5.71582C14.3783 5.12337 13.8861 4.82715 13.207 4.82715C12.6693 4.82715 12.2546 5.04134 11.9629 5.46973C11.6712 5.89355 11.5254 6.53385 11.5254 7.39062ZM17.7666 7.24707C17.7666 6.10775 18.0309 5.19401 18.5596 4.50586C19.0882 3.81315 19.7969 3.4668 20.6855 3.4668C21.4694 3.4668 22.1029 3.74023 22.5859 4.28711V0.5H24.2471V11H22.7432L22.6611 10.2344C22.1644 10.8359 21.5013 11.1367 20.6719 11.1367C19.806 11.1367 19.1042 10.7881 18.5664 10.0908C18.0332 9.39355 17.7666 8.44564 17.7666 7.24707ZM19.4277 7.39062C19.4277 8.14258 19.5713 8.73047 19.8584 9.1543C20.1501 9.57357 20.5625 9.7832 21.0957 9.7832C21.7747 9.7832 22.2715 9.48014 22.5859 8.87402V5.71582C22.2806 5.12337 21.7884 4.82715 21.1094 4.82715C20.5716 4.82715 20.1569 5.04134 19.8652 5.46973C19.5736 5.89355 19.4277 6.53385 19.4277 7.39062ZM35.4443 6.55664H31.3564V9.61914H36.1348V11H29.627V1.04688H36.0869V2.44141H31.3564V5.18945H35.4443V6.55664ZM39.8125 8.89453L41.3779 3.60352H43.0938L40.5303 11H39.0879L36.5039 3.60352H38.2266L39.8125 8.89453ZM47.2979 11.1367C46.2451 11.1367 45.3906 10.8063 44.7344 10.1455C44.0827 9.48014 43.7568 8.59603 43.7568 7.49316V7.28809C43.7568 6.5498 43.8981 5.89128 44.1807 5.3125C44.4678 4.72917 44.8688 4.27572 45.3838 3.95215C45.8988 3.62858 46.473 3.4668 47.1064 3.4668C48.1136 3.4668 48.8906 3.78809 49.4375 4.43066C49.9889 5.07324 50.2646 5.98242 50.2646 7.1582V7.82812H45.4316C45.4818 8.4388 45.6846 8.92188 46.04 9.27734C46.4001 9.63281 46.8512 9.81055 47.3936 9.81055C48.1546 9.81055 48.7744 9.50293 49.2529 8.8877L50.1484 9.74219C49.8522 10.1842 49.4557 10.5283 48.959 10.7744C48.4668 11.016 47.9131 11.1367 47.2979 11.1367ZM47.0996 4.7998C46.6439 4.7998 46.2747 4.95931 45.9922 5.27832C45.7142 5.59733 45.5365 6.04167 45.459 6.61133H48.624V6.48828C48.5876 5.93229 48.4395 5.51302 48.1797 5.23047C47.9199 4.94336 47.5599 4.7998 47.0996 4.7998ZM53.1016 3.60352L53.1494 4.45801C53.6963 3.7972 54.4141 3.4668 55.3027 3.4668C56.8431 3.4668 57.627 4.34863 57.6543 6.1123V11H55.9932V6.20801C55.9932 5.73861 55.8906 5.39225 55.6855 5.16895C55.485 4.94108 55.1546 4.82715 54.6943 4.82715C54.0244 4.82715 53.5254 5.13021 53.1973 5.73633V11H51.5361V3.60352H53.1016ZM61.4346 1.80566V3.60352H62.7402V4.83398H61.4346V8.96289C61.4346 9.24544 61.4893 9.45052 61.5986 9.57812C61.7126 9.70117 61.9131 9.7627 62.2002 9.7627C62.3916 9.7627 62.5853 9.73991 62.7812 9.69434V10.9795C62.403 11.0843 62.0384 11.1367 61.6875 11.1367C60.4115 11.1367 59.7734 10.4326 59.7734 9.02441V4.83398H58.5566V3.60352H59.7734V1.80566H61.4346Z" fill="#17272F"/>
</svg>
