<svg width="20" height="20" viewBox="0 0 20 20" fill="none" xmlns="http://www.w3.org/2000/svg">
<path d="M19.1667 15.8333C19.1667 16.2754 18.9911 16.6993 18.6785 17.0118C18.366 17.3244 17.942 17.5 17.5 17.5H2.50001C2.05798 17.5 1.63406 17.3244 1.3215 17.0118C1.00894 16.6993 0.833344 16.2754 0.833344 15.8333V6.66667C0.833344 6.22464 1.00894 5.80072 1.3215 5.48816C1.63406 5.17559 2.05798 5 2.50001 5H5.83334L7.50001 2.5H12.5L14.1667 5H17.5C17.942 5 18.366 5.17559 18.6785 5.48816C18.9911 5.80072 19.1667 6.22464 19.1667 6.66667V15.8333Z" stroke="#A7B4CC" stroke-width="1.5" stroke-linecap="round" stroke-linejoin="round"/>
<path d="M9.99999 14.1667C11.8409 14.1667 13.3333 12.6743 13.3333 10.8333C13.3333 8.99238 11.8409 7.5 9.99999 7.5C8.15904 7.5 6.66666 8.99238 6.66666 10.8333C6.66666 12.6743 8.15904 14.1667 9.99999 14.1667Z" stroke="#A7B4CC" stroke-width="1.5" stroke-linecap="round" stroke-linejoin="round"/>
</svg>
