<svg width="270" height="51" viewBox="0 0 270 51" fill="none" xmlns="http://www.w3.org/2000/svg">
<rect width="270" height="51" rx="6" fill="white"/>
<path d="M22.583 28.6826H18.7275L17.9209 31H16.123L19.8828 21.0469H21.4346L25.2012 31H23.3965L22.583 28.6826ZM19.2129 27.2881H22.0977L20.6553 23.1592L19.2129 27.2881ZM25.8643 27.2471C25.8643 26.1077 26.1286 25.194 26.6572 24.5059C27.1859 23.8132 27.8945 23.4668 28.7832 23.4668C29.5671 23.4668 30.2005 23.7402 30.6836 24.2871V20.5H32.3447V31H30.8408L30.7588 30.2344C30.262 30.8359 29.599 31.1367 28.7695 31.1367C27.9036 31.1367 27.2018 30.7881 26.6641 30.0908C26.1309 29.3936 25.8643 28.4456 25.8643 27.2471ZM27.5254 27.3906C27.5254 28.1426 27.6689 28.7305 27.9561 29.1543C28.2477 29.5736 28.6602 29.7832 29.1934 29.7832C29.8724 29.7832 30.3691 29.4801 30.6836 28.874V25.7158C30.3783 25.1234 29.8861 24.8271 29.207 24.8271C28.6693 24.8271 28.2546 25.0413 27.9629 25.4697C27.6712 25.8936 27.5254 26.5339 27.5254 27.3906ZM33.7666 27.2471C33.7666 26.1077 34.0309 25.194 34.5596 24.5059C35.0882 23.8132 35.7969 23.4668 36.6855 23.4668C37.4694 23.4668 38.1029 23.7402 38.5859 24.2871V20.5H40.2471V31H38.7432L38.6611 30.2344C38.1644 30.8359 37.5013 31.1367 36.6719 31.1367C35.806 31.1367 35.1042 30.7881 34.5664 30.0908C34.0332 29.3936 33.7666 28.4456 33.7666 27.2471ZM35.4277 27.3906C35.4277 28.1426 35.5713 28.7305 35.8584 29.1543C36.1501 29.5736 36.5625 29.7832 37.0957 29.7832C37.7747 29.7832 38.2715 29.4801 38.5859 28.874V25.7158C38.2806 25.1234 37.7884 24.8271 37.1094 24.8271C36.5716 24.8271 36.1569 25.0413 35.8652 25.4697C35.5736 25.8936 35.4277 26.5339 35.4277 27.3906ZM51.4443 26.5566H47.3564V29.6191H52.1348V31H45.627V21.0469H52.0869V22.4414H47.3564V25.1895H51.4443V26.5566ZM55.8125 28.8945L57.3779 23.6035H59.0938L56.5303 31H55.0879L52.5039 23.6035H54.2266L55.8125 28.8945ZM63.2979 31.1367C62.2451 31.1367 61.3906 30.8063 60.7344 30.1455C60.0827 29.4801 59.7568 28.596 59.7568 27.4932V27.2881C59.7568 26.5498 59.8981 25.8913 60.1807 25.3125C60.4678 24.7292 60.8688 24.2757 61.3838 23.9521C61.8988 23.6286 62.473 23.4668 63.1064 23.4668C64.1136 23.4668 64.8906 23.7881 65.4375 24.4307C65.9889 25.0732 66.2646 25.9824 66.2646 27.1582V27.8281H61.4316C61.4818 28.4388 61.6846 28.9219 62.04 29.2773C62.4001 29.6328 62.8512 29.8105 63.3936 29.8105C64.1546 29.8105 64.7744 29.5029 65.2529 28.8877L66.1484 29.7422C65.8522 30.1842 65.4557 30.5283 64.959 30.7744C64.4668 31.016 63.9131 31.1367 63.2979 31.1367ZM63.0996 24.7998C62.6439 24.7998 62.2747 24.9593 61.9922 25.2783C61.7142 25.5973 61.5365 26.0417 61.459 26.6113H64.624V26.4883C64.5876 25.9323 64.4395 25.513 64.1797 25.2305C63.9199 24.9434 63.5599 24.7998 63.0996 24.7998ZM69.1016 23.6035L69.1494 24.458C69.6963 23.7972 70.4141 23.4668 71.3027 23.4668C72.8431 23.4668 73.627 24.3486 73.6543 26.1123V31H71.9932V26.208C71.9932 25.7386 71.8906 25.3923 71.6855 25.1689C71.485 24.9411 71.1546 24.8271 70.6943 24.8271C70.0244 24.8271 69.5254 25.1302 69.1973 25.7363V31H67.5361V23.6035H69.1016ZM77.4346 21.8057V23.6035H78.7402V24.834H77.4346V28.9629C77.4346 29.2454 77.4893 29.4505 77.5986 29.5781C77.7126 29.7012 77.9131 29.7627 78.2002 29.7627C78.3916 29.7627 78.5853 29.7399 78.7812 29.6943V30.9795C78.403 31.0843 78.0384 31.1367 77.6875 31.1367C76.4115 31.1367 75.7734 30.4326 75.7734 29.0244V24.834H74.5566V23.6035H75.7734V21.8057H77.4346Z" fill="#17272F"/>
<path d="M244 20.1667V31.8333" stroke="#006699" stroke-width="2.5" stroke-linecap="round" stroke-linejoin="round"/>
<path d="M238.167 26H249.833" stroke="#006699" stroke-width="2.5" stroke-linecap="round" stroke-linejoin="round"/>
</svg>
