<svg width="68" height="20" viewBox="0 0 68 20" fill="none" xmlns="http://www.w3.org/2000/svg">
<g clip-path="url(#clip0_16_21)">
<path d="M18.3333 1.66666L9.16667 10.8333" stroke="#AAAAAA" stroke-width="2" stroke-linecap="round" stroke-linejoin="round"/>
<path d="M18.3333 1.66666L12.5 18.3333L9.16667 10.8333L1.66667 7.49999L18.3333 1.66666Z" stroke="#AAAAAA" stroke-width="2" stroke-linecap="round" stroke-linejoin="round"/>
</g>
<path d="M36.6719 9.92969C35.3854 9.5599 34.4479 9.10677 33.8594 8.57031C33.276 8.02865 32.9844 7.36198 32.9844 6.57031C32.9844 5.67448 33.3411 4.9349 34.0547 4.35156C34.7734 3.76302 35.7057 3.46875 36.8516 3.46875C37.6328 3.46875 38.3281 3.61979 38.9375 3.92188C39.5521 4.22396 40.026 4.64062 40.3594 5.17188C40.6979 5.70312 40.8672 6.28385 40.8672 6.91406H39.3594C39.3594 6.22656 39.1406 5.6875 38.7031 5.29688C38.2656 4.90104 37.6484 4.70312 36.8516 4.70312C36.112 4.70312 35.5339 4.86719 35.1172 5.19531C34.7057 5.51823 34.5 5.96875 34.5 6.54688C34.5 7.01042 34.6953 7.40365 35.0859 7.72656C35.4818 8.04427 36.151 8.33594 37.0938 8.60156C38.0417 8.86719 38.7812 9.16146 39.3125 9.48438C39.849 9.80208 40.2448 10.1745 40.5 10.6016C40.7604 11.0286 40.8906 11.5312 40.8906 12.1094C40.8906 13.0312 40.5312 13.7708 39.8125 14.3281C39.0938 14.8802 38.1328 15.1562 36.9297 15.1562C36.1484 15.1562 35.4193 15.0078 34.7422 14.7109C34.0651 14.4089 33.5417 13.9974 33.1719 13.4766C32.8073 12.9557 32.625 12.3646 32.625 11.7031H34.1328C34.1328 12.3906 34.3854 12.9349 34.8906 13.3359C35.401 13.7318 36.0807 13.9297 36.9297 13.9297C37.7214 13.9297 38.3281 13.7682 38.75 13.4453C39.1719 13.1224 39.3828 12.6823 39.3828 12.125C39.3828 11.5677 39.1875 11.138 38.7969 10.8359C38.4062 10.5286 37.6979 10.2266 36.6719 9.92969ZM46.1016 15.1562C44.9557 15.1562 44.0234 14.7812 43.3047 14.0312C42.5859 13.276 42.2266 12.2682 42.2266 11.0078V10.7422C42.2266 9.90365 42.3854 9.15625 42.7031 8.5C43.026 7.83854 43.474 7.32292 44.0469 6.95312C44.625 6.57812 45.25 6.39062 45.9219 6.39062C47.0208 6.39062 47.875 6.7526 48.4844 7.47656C49.0938 8.20052 49.3984 9.23698 49.3984 10.5859V11.1875H43.6719C43.6927 12.0208 43.9349 12.6953 44.3984 13.2109C44.8672 13.7214 45.4609 13.9766 46.1797 13.9766C46.6901 13.9766 47.1224 13.8724 47.4766 13.6641C47.8307 13.4557 48.1406 13.1797 48.4062 12.8359L49.2891 13.5234C48.5807 14.612 47.5182 15.1562 46.1016 15.1562ZM45.9219 7.57812C45.3385 7.57812 44.849 7.79167 44.4531 8.21875C44.0573 8.64062 43.8125 9.23438 43.7188 10H47.9531V9.89062C47.9115 9.15625 47.7135 8.58854 47.3594 8.1875C47.0052 7.78125 46.526 7.57812 45.9219 7.57812ZM52.4453 6.54688L52.4922 7.60938C53.138 6.79688 53.9818 6.39062 55.0234 6.39062C56.8099 6.39062 57.7109 7.39844 57.7266 9.41406V15H56.2812V9.40625C56.276 8.79688 56.1354 8.34635 55.8594 8.05469C55.5885 7.76302 55.1641 7.61719 54.5859 7.61719C54.1172 7.61719 53.7057 7.74219 53.3516 7.99219C52.9974 8.24219 52.7214 8.57031 52.5234 8.97656V15H51.0781V6.54688H52.4453ZM59.5547 10.7031C59.5547 9.40625 59.862 8.36458 60.4766 7.57812C61.0911 6.78646 61.8958 6.39062 62.8906 6.39062C63.8802 6.39062 64.6641 6.72917 65.2422 7.40625V3H66.6875V15H65.3594L65.2891 14.0938C64.7109 14.8021 63.9062 15.1562 62.875 15.1562C61.8958 15.1562 61.0964 14.7552 60.4766 13.9531C59.862 13.151 59.5547 12.1042 59.5547 10.8125V10.7031ZM61 10.8672C61 11.8255 61.1979 12.5755 61.5938 13.1172C61.9896 13.6589 62.5365 13.9297 63.2344 13.9297C64.151 13.9297 64.8203 13.5182 65.2422 12.6953V8.8125C64.8099 8.01562 64.1458 7.61719 63.25 7.61719C62.5417 7.61719 61.9896 7.89062 61.5938 8.4375C61.1979 8.98438 61 9.79427 61 10.8672Z" fill="#AAAAAA"/>
<defs>
<clipPath id="clip0_16_21">
<rect width="20" height="20" fill="white"/>
</clipPath>
</defs>
</svg>
