<svg width="57" height="22" viewBox="0 0 57 22" fill="none" xmlns="http://www.w3.org/2000/svg">
<g clip-path="url(#clip0_16_19)">
<path d="M14.1667 18.3333H16.6667C17.1087 18.3333 17.5326 18.1577 17.8452 17.8452C18.1577 17.5326 18.3333 17.1087 18.3333 16.6667V10.8333C18.3333 10.3913 18.1577 9.96737 17.8452 9.65481C17.5326 9.34225 17.1087 9.16666 16.6667 9.16666H14.1667M8.33333 7.49999V4.16666C8.33333 3.50362 8.59672 2.86773 9.06557 2.39889C9.53441 1.93005 10.1703 1.66666 10.8333 1.66666L14.1667 9.16666V18.3333H4.76667C4.36473 18.3379 3.97468 18.197 3.66841 17.9367C3.36214 17.6763 3.16027 17.3141 3.1 16.9167L1.95 9.41666C1.91374 9.17779 1.92985 8.93389 1.99722 8.70187C2.06458 8.46984 2.18158 8.25524 2.34012 8.07292C2.49865 7.8906 2.69493 7.74493 2.91536 7.646C3.13578 7.54708 3.37508 7.49725 3.61667 7.49999H8.33333Z" stroke="#AAAAAA" stroke-width="2" stroke-linecap="round" stroke-linejoin="round"/>
</g>
<path d="M30.8281 16.7734H36.2188V18H29.3203V6.625H30.8281V16.7734ZM39.2734 18H37.8281V9.54688H39.2734V18ZM37.7109 7.30469C37.7109 7.07031 37.7812 6.8724 37.9219 6.71094C38.0677 6.54948 38.2812 6.46875 38.5625 6.46875C38.8438 6.46875 39.0573 6.54948 39.2031 6.71094C39.349 6.8724 39.4219 7.07031 39.4219 7.30469C39.4219 7.53906 39.349 7.73438 39.2031 7.89062C39.0573 8.04688 38.8438 8.125 38.5625 8.125C38.2812 8.125 38.0677 8.04688 37.9219 7.89062C37.7812 7.73438 37.7109 7.53906 37.7109 7.30469ZM43.9531 14.0859L43.0469 15.0312V18H41.6016V6H43.0469V13.2578L43.8203 12.3281L46.4531 9.54688H48.2109L44.9219 13.0781L48.5938 18H46.8984L43.9531 14.0859ZM53.0547 18.1562C51.9089 18.1562 50.9766 17.7812 50.2578 17.0312C49.5391 16.276 49.1797 15.2682 49.1797 14.0078V13.7422C49.1797 12.9036 49.3385 12.1562 49.6562 11.5C49.9792 10.8385 50.4271 10.3229 51 9.95312C51.5781 9.57812 52.2031 9.39062 52.875 9.39062C53.974 9.39062 54.8281 9.7526 55.4375 10.4766C56.0469 11.2005 56.3516 12.237 56.3516 13.5859V14.1875H50.625C50.6458 15.0208 50.888 15.6953 51.3516 16.2109C51.8203 16.7214 52.4141 16.9766 53.1328 16.9766C53.6432 16.9766 54.0755 16.8724 54.4297 16.6641C54.7839 16.4557 55.0938 16.1797 55.3594 15.8359L56.2422 16.5234C55.5339 17.612 54.4714 18.1562 53.0547 18.1562ZM52.875 10.5781C52.2917 10.5781 51.8021 10.7917 51.4062 11.2188C51.0104 11.6406 50.7656 12.2344 50.6719 13H54.9062V12.8906C54.8646 12.1562 54.6667 11.5885 54.3125 11.1875C53.9583 10.7812 53.4792 10.5781 52.875 10.5781Z" fill="#AAAAAA"/>
<defs>
<clipPath id="clip0_16_19">
<rect width="20" height="20" fill="white" transform="matrix(-1 0 0 1 20 0)"/>
</clipPath>
</defs>
</svg>
