<svg width="103" height="20" viewBox="0 0 103 20" fill="none" xmlns="http://www.w3.org/2000/svg">
<path d="M17.5 12.5C17.5 12.942 17.3244 13.366 17.0118 13.6785C16.6993 13.9911 16.2754 14.1667 15.8333 14.1667H5.83333L2.5 17.5V4.16667C2.5 3.72464 2.67559 3.30072 2.98816 2.98816C3.30072 2.67559 3.72464 2.5 4.16667 2.5H15.8333C16.2754 2.5 16.6993 2.67559 17.0118 2.98816C17.3244 3.30072 17.5 3.72464 17.5 4.16667V12.5Z" stroke="#AAAAAA" stroke-width="2.33333" stroke-linecap="round" stroke-linejoin="round"/>
<path d="M41.6875 12.3906C41.5469 13.5938 41.1016 14.5234 40.3516 15.1797C39.6068 15.8307 38.6146 16.1562 37.375 16.1562C36.0312 16.1562 34.9531 15.6745 34.1406 14.7109C33.3333 13.7474 32.9297 12.4583 32.9297 10.8438V9.75C32.9297 8.69271 33.1172 7.76302 33.4922 6.96094C33.8724 6.15885 34.4089 5.54427 35.1016 5.11719C35.7943 4.6849 36.5964 4.46875 37.5078 4.46875C38.7161 4.46875 39.6849 4.80729 40.4141 5.48438C41.1432 6.15625 41.5677 7.08854 41.6875 8.28125H40.1797C40.0495 7.375 39.7656 6.71875 39.3281 6.3125C38.8958 5.90625 38.2891 5.70312 37.5078 5.70312C36.5495 5.70312 35.7969 6.05729 35.25 6.76562C34.7083 7.47396 34.4375 8.48177 34.4375 9.78906V10.8906C34.4375 12.125 34.6953 13.1068 35.2109 13.8359C35.7266 14.5651 36.4479 14.9297 37.375 14.9297C38.2083 14.9297 38.8464 14.7422 39.2891 14.3672C39.737 13.987 40.0339 13.3281 40.1797 12.3906H41.6875ZM43.1328 11.6953C43.1328 10.8672 43.2943 10.1224 43.6172 9.46094C43.9453 8.79948 44.3984 8.28906 44.9766 7.92969C45.5599 7.57031 46.224 7.39062 46.9688 7.39062C48.1198 7.39062 49.0495 7.78906 49.7578 8.58594C50.4714 9.38281 50.8281 10.4427 50.8281 11.7656V11.8672C50.8281 12.6901 50.6693 13.4297 50.3516 14.0859C50.0391 14.737 49.5885 15.2448 49 15.6094C48.4167 15.974 47.7448 16.1562 46.9844 16.1562C45.8385 16.1562 44.9089 15.7578 44.1953 14.9609C43.487 14.1641 43.1328 13.1094 43.1328 11.7969V11.6953ZM44.5859 11.8672C44.5859 12.8047 44.8021 13.5573 45.2344 14.125C45.6719 14.6927 46.2552 14.9766 46.9844 14.9766C47.7188 14.9766 48.3021 14.6901 48.7344 14.1172C49.1667 13.5391 49.3828 12.7318 49.3828 11.6953C49.3828 10.7682 49.1615 10.0182 48.7188 9.44531C48.2812 8.86719 47.6979 8.57812 46.9688 8.57812C46.2552 8.57812 45.6797 8.86198 45.2422 9.42969C44.8047 9.9974 44.5859 10.8099 44.5859 11.8672ZM54 7.54688L54.0391 8.48438C54.6589 7.75521 55.4948 7.39062 56.5469 7.39062C57.7292 7.39062 58.5339 7.84375 58.9609 8.75C59.2422 8.34375 59.6068 8.01562 60.0547 7.76562C60.5078 7.51562 61.0417 7.39062 61.6562 7.39062C63.5104 7.39062 64.4531 8.3724 64.4844 10.3359V16H63.0391V10.4219C63.0391 9.81771 62.901 9.36719 62.625 9.07031C62.349 8.76823 61.8854 8.61719 61.2344 8.61719C60.6979 8.61719 60.2526 8.77865 59.8984 9.10156C59.5443 9.41927 59.3385 9.84896 59.2812 10.3906V16H57.8281V10.4609C57.8281 9.23177 57.2266 8.61719 56.0234 8.61719C55.0755 8.61719 54.4271 9.02083 54.0781 9.82812V16H52.6328V7.54688H54ZM68.0312 7.54688L68.0703 8.48438C68.6901 7.75521 69.526 7.39062 70.5781 7.39062C71.7604 7.39062 72.5651 7.84375 72.9922 8.75C73.2734 8.34375 73.638 8.01562 74.0859 7.76562C74.5391 7.51562 75.0729 7.39062 75.6875 7.39062C77.5417 7.39062 78.4844 8.3724 78.5156 10.3359V16H77.0703V10.4219C77.0703 9.81771 76.9323 9.36719 76.6562 9.07031C76.3802 8.76823 75.9167 8.61719 75.2656 8.61719C74.7292 8.61719 74.2839 8.77865 73.9297 9.10156C73.5755 9.41927 73.3698 9.84896 73.3125 10.3906V16H71.8594V10.4609C71.8594 9.23177 71.2578 8.61719 70.0547 8.61719C69.1068 8.61719 68.4583 9.02083 68.1094 9.82812V16H66.6641V7.54688H68.0312ZM84.2109 16.1562C83.0651 16.1562 82.1328 15.7812 81.4141 15.0312C80.6953 14.276 80.3359 13.2682 80.3359 12.0078V11.7422C80.3359 10.9036 80.4948 10.1562 80.8125 9.5C81.1354 8.83854 81.5833 8.32292 82.1562 7.95312C82.7344 7.57812 83.3594 7.39062 84.0312 7.39062C85.1302 7.39062 85.9844 7.7526 86.5938 8.47656C87.2031 9.20052 87.5078 10.237 87.5078 11.5859V12.1875H81.7812C81.8021 13.0208 82.0443 13.6953 82.5078 14.2109C82.9766 14.7214 83.5703 14.9766 84.2891 14.9766C84.7995 14.9766 85.2318 14.8724 85.5859 14.6641C85.9401 14.4557 86.25 14.1797 86.5156 13.8359L87.3984 14.5234C86.6901 15.612 85.6276 16.1562 84.2109 16.1562ZM84.0312 8.57812C83.4479 8.57812 82.9583 8.79167 82.5625 9.21875C82.1667 9.64062 81.9219 10.2344 81.8281 11H86.0625V10.8906C86.0208 10.1562 85.8229 9.58854 85.4688 9.1875C85.1146 8.78125 84.6354 8.57812 84.0312 8.57812ZM90.5547 7.54688L90.6016 8.60938C91.2474 7.79688 92.0911 7.39062 93.1328 7.39062C94.9193 7.39062 95.8203 8.39844 95.8359 10.4141V16H94.3906V10.4062C94.3854 9.79688 94.2448 9.34635 93.9688 9.05469C93.6979 8.76302 93.2734 8.61719 92.6953 8.61719C92.2266 8.61719 91.8151 8.74219 91.4609 8.99219C91.1068 9.24219 90.8307 9.57031 90.6328 9.97656V16H89.1875V7.54688H90.5547ZM99.9766 5.5V7.54688H101.555V8.66406H99.9766V13.9062C99.9766 14.2448 100.047 14.5 100.188 14.6719C100.328 14.8385 100.568 14.9219 100.906 14.9219C101.073 14.9219 101.302 14.8906 101.594 14.8281V16C101.214 16.1042 100.844 16.1562 100.484 16.1562C99.8385 16.1562 99.3516 15.9609 99.0234 15.5703C98.6953 15.1797 98.5312 14.625 98.5312 13.9062V8.66406H96.9922V7.54688H98.5312V5.5H99.9766Z" fill="#AAAAAA"/>
</svg>
