<svg width="73" height="20" viewBox="0 0 73 20" fill="none" xmlns="http://www.w3.org/2000/svg">
<path d="M15 6.66666C16.3807 6.66666 17.5 5.54737 17.5 4.16666C17.5 2.78594 16.3807 1.66666 15 1.66666C13.6193 1.66666 12.5 2.78594 12.5 4.16666C12.5 5.54737 13.6193 6.66666 15 6.66666Z" stroke="#AAAAAA" stroke-width="2" stroke-linecap="round" stroke-linejoin="round"/>
<path d="M5 12.5C6.38071 12.5 7.5 11.3807 7.5 10C7.5 8.61929 6.38071 7.5 5 7.5C3.61929 7.5 2.5 8.61929 2.5 10C2.5 11.3807 3.61929 12.5 5 12.5Z" stroke="#AAAAAA" stroke-width="2" stroke-linecap="round" stroke-linejoin="round"/>
<path d="M15 18.3333C16.3807 18.3333 17.5 17.2141 17.5 15.8333C17.5 14.4526 16.3807 13.3333 15 13.3333C13.6193 13.3333 12.5 14.4526 12.5 15.8333C12.5 17.2141 13.6193 18.3333 15 18.3333Z" stroke="#AAAAAA" stroke-width="2" stroke-linecap="round" stroke-linejoin="round"/>
<path d="M7.15834 11.2583L12.85 14.575" stroke="#AAAAAA" stroke-width="2" stroke-linecap="round" stroke-linejoin="round"/>
<path d="M12.8417 5.42499L7.15834 8.74165" stroke="#AAAAAA" stroke-width="2" stroke-linecap="round" stroke-linejoin="round"/>
<path d="M36.6719 9.92969C35.3854 9.5599 34.4479 9.10677 33.8594 8.57031C33.276 8.02865 32.9844 7.36198 32.9844 6.57031C32.9844 5.67448 33.3411 4.9349 34.0547 4.35156C34.7734 3.76302 35.7057 3.46875 36.8516 3.46875C37.6328 3.46875 38.3281 3.61979 38.9375 3.92188C39.5521 4.22396 40.026 4.64062 40.3594 5.17188C40.6979 5.70312 40.8672 6.28385 40.8672 6.91406H39.3594C39.3594 6.22656 39.1406 5.6875 38.7031 5.29688C38.2656 4.90104 37.6484 4.70312 36.8516 4.70312C36.112 4.70312 35.5339 4.86719 35.1172 5.19531C34.7057 5.51823 34.5 5.96875 34.5 6.54688C34.5 7.01042 34.6953 7.40365 35.0859 7.72656C35.4818 8.04427 36.151 8.33594 37.0938 8.60156C38.0417 8.86719 38.7812 9.16146 39.3125 9.48438C39.849 9.80208 40.2448 10.1745 40.5 10.6016C40.7604 11.0286 40.8906 11.5312 40.8906 12.1094C40.8906 13.0312 40.5312 13.7708 39.8125 14.3281C39.0938 14.8802 38.1328 15.1562 36.9297 15.1562C36.1484 15.1562 35.4193 15.0078 34.7422 14.7109C34.0651 14.4089 33.5417 13.9974 33.1719 13.4766C32.8073 12.9557 32.625 12.3646 32.625 11.7031H34.1328C34.1328 12.3906 34.3854 12.9349 34.8906 13.3359C35.401 13.7318 36.0807 13.9297 36.9297 13.9297C37.7214 13.9297 38.3281 13.7682 38.75 13.4453C39.1719 13.1224 39.3828 12.6823 39.3828 12.125C39.3828 11.5677 39.1875 11.138 38.7969 10.8359C38.4062 10.5286 37.6979 10.2266 36.6719 9.92969ZM44.0391 7.57031C44.6797 6.78385 45.513 6.39062 46.5391 6.39062C48.3255 6.39062 49.2266 7.39844 49.2422 9.41406V15H47.7969V9.40625C47.7917 8.79688 47.651 8.34635 47.375 8.05469C47.1042 7.76302 46.6797 7.61719 46.1016 7.61719C45.6328 7.61719 45.2214 7.74219 44.8672 7.99219C44.513 8.24219 44.237 8.57031 44.0391 8.97656V15H42.5938V3H44.0391V7.57031ZM56.625 15C56.5417 14.8333 56.474 14.5365 56.4219 14.1094C55.75 14.8073 54.9479 15.1562 54.0156 15.1562C53.1823 15.1562 52.4974 14.9219 51.9609 14.4531C51.4297 13.9792 51.1641 13.3802 51.1641 12.6562C51.1641 11.776 51.4974 11.0938 52.1641 10.6094C52.8359 10.1198 53.7786 9.875 54.9922 9.875H56.3984V9.21094C56.3984 8.70573 56.2474 8.30469 55.9453 8.00781C55.6432 7.70573 55.1979 7.55469 54.6094 7.55469C54.0938 7.55469 53.6615 7.6849 53.3125 7.94531C52.9635 8.20573 52.7891 8.52083 52.7891 8.89062H51.3359C51.3359 8.46875 51.4844 8.0625 51.7812 7.67188C52.0833 7.27604 52.4896 6.96354 53 6.73438C53.5156 6.50521 54.0807 6.39062 54.6953 6.39062C55.6693 6.39062 56.4323 6.63542 56.9844 7.125C57.5365 7.60938 57.8229 8.27865 57.8438 9.13281V13.0234C57.8438 13.7995 57.9427 14.4167 58.1406 14.875V15H56.625ZM54.2266 13.8984C54.6797 13.8984 55.1094 13.7812 55.5156 13.5469C55.9219 13.3125 56.2161 13.0078 56.3984 12.6328V10.8984H55.2656C53.4948 10.8984 52.6094 11.4167 52.6094 12.4531C52.6094 12.9062 52.7604 13.2604 53.0625 13.5156C53.3646 13.7708 53.7526 13.8984 54.2266 13.8984ZM64.1953 7.84375C63.9766 7.80729 63.7396 7.78906 63.4844 7.78906C62.5365 7.78906 61.8932 8.19271 61.5547 9V15H60.1094V6.54688H61.5156L61.5391 7.52344C62.013 6.76823 62.6849 6.39062 63.5547 6.39062C63.8359 6.39062 64.0495 6.42708 64.1953 6.5V7.84375ZM68.8828 15.1562C67.737 15.1562 66.8047 14.7812 66.0859 14.0312C65.3672 13.276 65.0078 12.2682 65.0078 11.0078V10.7422C65.0078 9.90365 65.1667 9.15625 65.4844 8.5C65.8073 7.83854 66.2552 7.32292 66.8281 6.95312C67.4062 6.57812 68.0312 6.39062 68.7031 6.39062C69.8021 6.39062 70.6562 6.7526 71.2656 7.47656C71.875 8.20052 72.1797 9.23698 72.1797 10.5859V11.1875H66.4531C66.474 12.0208 66.7161 12.6953 67.1797 13.2109C67.6484 13.7214 68.2422 13.9766 68.9609 13.9766C69.4714 13.9766 69.9036 13.8724 70.2578 13.6641C70.612 13.4557 70.9219 13.1797 71.1875 12.8359L72.0703 13.5234C71.362 14.612 70.2995 15.1562 68.8828 15.1562ZM68.7031 7.57812C68.1198 7.57812 67.6302 7.79167 67.2344 8.21875C66.8385 8.64062 66.5938 9.23438 66.5 10H70.7344V9.89062C70.6927 9.15625 70.4948 8.58854 70.1406 8.1875C69.7865 7.78125 69.3073 7.57812 68.7031 7.57812Z" fill="#AAAAAA"/>
</svg>
