<svg width="44" height="12" viewBox="0 0 44 12" fill="none" xmlns="http://www.w3.org/2000/svg">
<g clip-path="url(#clip0_21_28)">
<path d="M32.4158 0.859616C32.4158 0.385112 32.7991 0 33.2715 0H43.138C43.6106 0 43.9937 0.385112 43.9937 0.859616V11.1405C43.9937 11.6152 43.6106 12 43.138 12H33.2715C32.7991 12 32.4158 11.6152 32.4158 11.1407V0.859459V0.859616Z" fill="#006699"/>
<path d="M0.00598145 10.0518H4.83773V8.41785H1.75485V2.18476H0.00598145V10.0518ZM7.28401 10.0518V4.63314H5.53529V10.0518H7.28401ZM6.4098 3.89345C7.0195 3.89345 7.39907 3.47734 7.39907 2.95703C7.38776 2.4254 7.0195 2.02109 6.42141 2.02109C5.82318 2.02109 5.43199 2.42556 5.43199 2.95703C5.43199 3.47734 5.81156 3.89345 6.39834 3.89345H6.4098ZM8.09587 10.0518H9.84459V7.02565C9.84459 6.86371 9.8559 6.70176 9.9022 6.5864C10.0284 6.26283 10.3161 5.9276 10.7993 5.9276C11.4322 5.9276 11.6854 6.42461 11.6854 7.15266V10.0516H13.4339V6.94476C13.4339 5.28029 12.5711 4.50582 11.4205 4.50582C10.4772 4.50582 10.0629 5.04894 9.83282 5.41895H9.84459V4.63314H8.09587C8.11894 5.14164 8.09587 10.0518 8.09587 10.0518ZM15.9009 2.18476H14.1522V10.0518H15.9009V8.29493L16.338 7.7282L17.7071 10.0518H19.8583L17.5577 6.68807L19.5707 4.39975H17.4657C17.4657 4.39975 16.0276 6.44696 15.9009 6.68996V2.18476Z" fill="#17272F"/>
<path d="M24.5347 7.79147C24.5578 7.65234 24.5923 7.38542 24.5923 7.08357C24.5923 5.68287 23.9019 4.26077 22.0843 4.26077C20.14 4.26077 19.2426 5.8445 19.2426 7.28092C19.2426 9.05744 20.3356 10.1668 22.2452 10.1668C23.0047 10.1668 23.7062 10.0516 24.2817 9.80878L24.0515 8.61929C23.5797 8.78045 23.0965 8.86119 22.4984 8.86119C21.6817 8.86119 20.9685 8.51574 20.9109 7.77982L24.5347 7.79115V7.79147ZM20.8994 6.57302C20.9454 6.11063 21.2448 5.42839 21.9925 5.42839C22.7861 5.42839 22.9704 6.15675 22.9704 6.57302H20.8996H20.8994ZM28.9086 2.18476V4.90808H28.8856C28.6324 4.52691 28.1032 4.27258 27.4018 4.27258C26.0556 4.27258 24.8707 5.38212 24.882 7.27762C24.882 9.03462 25.9521 10.1789 27.2864 10.1789C28.0114 10.1789 28.7014 9.85505 29.0468 9.23088H29.0812L29.1504 10.0518H30.7034C30.6804 9.67028 30.6572 9.01149 30.6572 8.36418V2.1846H28.9085L28.9086 2.18476ZM28.9086 7.54359C28.9086 7.68209 28.8972 7.82105 28.874 7.93626C28.7708 8.43358 28.3565 8.77998 27.8503 8.77998C27.1257 8.77998 26.6538 8.1791 26.6538 7.23135C26.6538 6.34151 27.0568 5.6248 27.8619 5.6248C28.4025 5.6248 28.7821 6.00613 28.8857 6.47985C28.9086 6.58419 28.9086 6.69987 28.9086 6.80374V7.54343V7.54359Z" fill="#17272F"/>
<path d="M35.9255 10.0451V4.62652H34.1768V10.0451H35.9257H35.9255ZM35.0515 3.88683C35.6612 3.88683 36.0407 3.47071 36.0407 2.95073C36.0293 2.41893 35.6612 2.01447 35.0631 2.01447C34.4645 2.01447 34.0737 2.41893 34.0737 2.95073C34.0737 3.47071 34.4531 3.88683 35.04 3.88683H35.0513H35.0515ZM36.8934 10.0451H38.642V7.0195C38.642 6.85771 38.6534 6.69561 38.6996 6.58009C38.8259 6.25636 39.1137 5.92129 39.5969 5.92129C40.2295 5.92129 40.4827 6.41815 40.4827 7.14666V10.0451H42.2312V6.93829C42.2312 5.27398 41.3686 4.49951 40.2182 4.49951C39.2749 4.49951 38.8606 5.04248 38.6305 5.41232H38.6421V4.62668H36.8936C36.9163 5.13502 36.8934 10.0453 36.8934 10.0453V10.0451Z" fill="white"/>
</g>
<defs>
<clipPath id="clip0_21_28">
<rect width="44" height="12" fill="white"/>
</clipPath>
</defs>
</svg>
