<svg width="106" height="14" viewBox="0 0 106 14" fill="none" xmlns="http://www.w3.org/2000/svg">
<path d="M20.9902 11V2.46875H23.3984C24.1406 2.46875 24.7969 2.63281 25.3672 2.96094C25.9375 3.28906 26.377 3.75586 26.6855 4.36133C26.998 4.9668 27.1562 5.66211 27.1602 6.44727V6.99219C27.1602 7.79688 27.0039 8.50195 26.6914 9.10742C26.3828 9.71289 25.9395 10.1777 25.3613 10.502C24.7871 10.8262 24.1172 10.9922 23.3516 11H20.9902ZM22.1152 3.39453V10.0801H23.2988C24.166 10.0801 24.8398 9.81055 25.3203 9.27148C25.8047 8.73242 26.0469 7.96484 26.0469 6.96875V6.4707C26.0469 5.50195 25.8184 4.75 25.3613 4.21484C24.9082 3.67578 24.2637 3.40234 23.4277 3.39453H22.1152ZM31.3262 11.1172C30.4668 11.1172 29.7676 10.8359 29.2285 10.2734C28.6895 9.70703 28.4199 8.95117 28.4199 8.00586V7.80664C28.4199 7.17773 28.5391 6.61719 28.7773 6.125C29.0195 5.62891 29.3555 5.24219 29.7852 4.96484C30.2188 4.68359 30.6875 4.54297 31.1914 4.54297C32.0156 4.54297 32.6562 4.81445 33.1133 5.35742C33.5703 5.90039 33.7988 6.67773 33.7988 7.68945V8.14062H29.5039C29.5195 8.76562 29.7012 9.27148 30.0488 9.6582C30.4004 10.041 30.8457 10.2324 31.3848 10.2324C31.7676 10.2324 32.0918 10.1543 32.3574 9.99805C32.623 9.8418 32.8555 9.63477 33.0547 9.37695L33.7168 9.89258C33.1855 10.709 32.3887 11.1172 31.3262 11.1172ZM31.1914 5.43359C30.7539 5.43359 30.3867 5.59375 30.0898 5.91406C29.793 6.23047 29.6094 6.67578 29.5391 7.25H32.7148V7.16797C32.6836 6.61719 32.5352 6.19141 32.2695 5.89062C32.0039 5.58594 31.6445 5.43359 31.1914 5.43359ZM38.75 9.31836C38.75 9.02539 38.6387 8.79883 38.416 8.63867C38.1973 8.47461 37.8125 8.33398 37.2617 8.2168C36.7148 8.09961 36.2793 7.95898 35.9551 7.79492C35.6348 7.63086 35.3965 7.43555 35.2402 7.20898C35.0879 6.98242 35.0117 6.71289 35.0117 6.40039C35.0117 5.88086 35.2305 5.44141 35.668 5.08203C36.1094 4.72266 36.6719 4.54297 37.3555 4.54297C38.0742 4.54297 38.6562 4.72852 39.1016 5.09961C39.5508 5.4707 39.7754 5.94531 39.7754 6.52344H38.6855C38.6855 6.22656 38.5586 5.9707 38.3047 5.75586C38.0547 5.54102 37.7383 5.43359 37.3555 5.43359C36.9609 5.43359 36.6523 5.51953 36.4297 5.69141C36.207 5.86328 36.0957 6.08789 36.0957 6.36523C36.0957 6.62695 36.1992 6.82422 36.4062 6.95703C36.6133 7.08984 36.9863 7.2168 37.5254 7.33789C38.0684 7.45898 38.5078 7.60352 38.8438 7.77148C39.1797 7.93945 39.4277 8.14258 39.5879 8.38086C39.752 8.61523 39.834 8.90234 39.834 9.24219C39.834 9.80859 39.6074 10.2637 39.1543 10.6074C38.7012 10.9473 38.1133 11.1172 37.3906 11.1172C36.8828 11.1172 36.4336 11.0273 36.043 10.8477C35.6523 10.668 35.3457 10.418 35.123 10.0977C34.9043 9.77344 34.7949 9.42383 34.7949 9.04883H35.8789C35.8984 9.41211 36.043 9.70117 36.3125 9.91602C36.5859 10.127 36.9453 10.2324 37.3906 10.2324C37.8008 10.2324 38.1289 10.1504 38.375 9.98633C38.625 9.81836 38.75 9.5957 38.75 9.31836ZM42.4238 11H41.3398V4.66016H42.4238V11ZM41.252 2.97852C41.252 2.80273 41.3047 2.6543 41.4102 2.5332C41.5195 2.41211 41.6797 2.35156 41.8906 2.35156C42.1016 2.35156 42.2617 2.41211 42.3711 2.5332C42.4805 2.6543 42.5352 2.80273 42.5352 2.97852C42.5352 3.1543 42.4805 3.30078 42.3711 3.41797C42.2617 3.53516 42.1016 3.59375 41.8906 3.59375C41.6797 3.59375 41.5195 3.53516 41.4102 3.41797C41.3047 3.30078 41.252 3.1543 41.252 2.97852ZM43.9062 7.77734C43.9062 6.78906 44.1348 6.00391 44.5918 5.42188C45.0488 4.83594 45.6543 4.54297 46.4082 4.54297C47.1816 4.54297 47.7852 4.81641 48.2188 5.36328L48.2715 4.66016H49.2617V10.8477C49.2617 11.668 49.0176 12.3145 48.5293 12.7871C48.0449 13.2598 47.3926 13.4961 46.5723 13.4961C46.1152 13.4961 45.668 13.3984 45.2305 13.2031C44.793 13.0078 44.459 12.7402 44.2285 12.4004L44.791 11.75C45.2559 12.3242 45.8242 12.6113 46.4961 12.6113C47.0234 12.6113 47.4336 12.4629 47.7266 12.166C48.0234 11.8691 48.1719 11.4512 48.1719 10.9121V10.3672C47.7383 10.8672 47.1465 11.1172 46.3965 11.1172C45.6543 11.1172 45.0527 10.8184 44.5918 10.2207C44.1348 9.62305 43.9062 8.80859 43.9062 7.77734ZM44.9961 7.90039C44.9961 8.61523 45.1426 9.17773 45.4355 9.58789C45.7285 9.99414 46.1387 10.1973 46.666 10.1973C47.3496 10.1973 47.8516 9.88672 48.1719 9.26562V6.37109C47.8398 5.76562 47.3418 5.46289 46.6777 5.46289C46.1504 5.46289 45.7383 5.66797 45.4414 6.07812C45.1445 6.48828 44.9961 7.0957 44.9961 7.90039ZM51.9277 4.66016L51.9629 5.45703C52.4473 4.84766 53.0801 4.54297 53.8613 4.54297C55.2012 4.54297 55.877 5.29883 55.8887 6.81055V11H54.8047V6.80469C54.8008 6.34766 54.6953 6.00977 54.4883 5.79102C54.2852 5.57227 53.9668 5.46289 53.5332 5.46289C53.1816 5.46289 52.873 5.55664 52.6074 5.74414C52.3418 5.93164 52.1348 6.17773 51.9863 6.48242V11H50.9023V4.66016H51.9277ZM66.3301 3.39453H63.5879V11H62.4688V3.39453H59.7324V2.46875H66.3301V3.39453ZM68.5098 5.42773C68.9902 4.83789 69.6152 4.54297 70.3848 4.54297C71.7246 4.54297 72.4004 5.29883 72.4121 6.81055V11H71.3281V6.80469C71.3242 6.34766 71.2188 6.00977 71.0117 5.79102C70.8086 5.57227 70.4902 5.46289 70.0566 5.46289C69.7051 5.46289 69.3965 5.55664 69.1309 5.74414C68.8652 5.93164 68.6582 6.17773 68.5098 6.48242V11H67.4258V2H68.5098V5.42773ZM75.2129 11H74.1289V4.66016H75.2129V11ZM74.041 2.97852C74.041 2.80273 74.0938 2.6543 74.1992 2.5332C74.3086 2.41211 74.4688 2.35156 74.6797 2.35156C74.8906 2.35156 75.0508 2.41211 75.1602 2.5332C75.2695 2.6543 75.3242 2.80273 75.3242 2.97852C75.3242 3.1543 75.2695 3.30078 75.1602 3.41797C75.0508 3.53516 74.8906 3.59375 74.6797 3.59375C74.4688 3.59375 74.3086 3.53516 74.1992 3.41797C74.0938 3.30078 74.041 3.1543 74.041 2.97852ZM77.9785 4.66016L78.0137 5.45703C78.498 4.84766 79.1309 4.54297 79.9121 4.54297C81.252 4.54297 81.9277 5.29883 81.9395 6.81055V11H80.8555V6.80469C80.8516 6.34766 80.7461 6.00977 80.5391 5.79102C80.3359 5.57227 80.0176 5.46289 79.584 5.46289C79.2324 5.46289 78.9238 5.55664 78.6582 5.74414C78.3926 5.93164 78.1855 6.17773 78.0371 6.48242V11H76.9531V4.66016H77.9785ZM85.3438 8.06445L84.6641 8.77344V11H83.5801V2H84.6641V7.44336L85.2441 6.74609L87.2188 4.66016H88.5371L86.0703 7.30859L88.8242 11H87.5527L85.3438 8.06445ZM90.834 11H89.75V4.66016H90.834V11ZM89.6621 2.97852C89.6621 2.80273 89.7148 2.6543 89.8203 2.5332C89.9297 2.41211 90.0898 2.35156 90.3008 2.35156C90.5117 2.35156 90.6719 2.41211 90.7812 2.5332C90.8906 2.6543 90.9453 2.80273 90.9453 2.97852C90.9453 3.1543 90.8906 3.30078 90.7812 3.41797C90.6719 3.53516 90.5117 3.59375 90.3008 3.59375C90.0898 3.59375 89.9297 3.53516 89.8203 3.41797C89.7148 3.30078 89.6621 3.1543 89.6621 2.97852ZM93.5996 4.66016L93.6348 5.45703C94.1191 4.84766 94.752 4.54297 95.5332 4.54297C96.873 4.54297 97.5488 5.29883 97.5605 6.81055V11H96.4766V6.80469C96.4727 6.34766 96.3672 6.00977 96.1602 5.79102C95.957 5.57227 95.6387 5.46289 95.2051 5.46289C94.8535 5.46289 94.5449 5.55664 94.2793 5.74414C94.0137 5.93164 93.8066 6.17773 93.6582 6.48242V11H92.5742V4.66016H93.5996ZM98.9375 7.77734C98.9375 6.78906 99.166 6.00391 99.623 5.42188C100.08 4.83594 100.686 4.54297 101.439 4.54297C102.213 4.54297 102.816 4.81641 103.25 5.36328L103.303 4.66016H104.293V10.8477C104.293 11.668 104.049 12.3145 103.561 12.7871C103.076 13.2598 102.424 13.4961 101.604 13.4961C101.146 13.4961 100.699 13.3984 100.262 13.2031C99.8242 13.0078 99.4902 12.7402 99.2598 12.4004L99.8223 11.75C100.287 12.3242 100.855 12.6113 101.527 12.6113C102.055 12.6113 102.465 12.4629 102.758 12.166C103.055 11.8691 103.203 11.4512 103.203 10.9121V10.3672C102.77 10.8672 102.178 11.1172 101.428 11.1172C100.686 11.1172 100.084 10.8184 99.623 10.2207C99.166 9.62305 98.9375 8.80859 98.9375 7.77734ZM100.027 7.90039C100.027 8.61523 100.174 9.17773 100.467 9.58789C100.76 9.99414 101.17 10.1973 101.697 10.1973C102.381 10.1973 102.883 9.88672 103.203 9.26562V6.37109C102.871 5.76562 102.373 5.46289 101.709 5.46289C101.182 5.46289 100.77 5.66797 100.473 6.07812C100.176 6.48828 100.027 7.0957 100.027 7.90039Z" fill="#006699"/>
<path d="M8.5 10.5V9.5C8.5 8.96957 8.28929 8.46086 7.91421 8.08579C7.53914 7.71071 7.03043 7.5 6.5 7.5H2.5C1.96957 7.5 1.46086 7.71071 1.08579 8.08579C0.710714 8.46086 0.5 8.96957 0.5 9.5V10.5" stroke="#006699" stroke-linecap="round" stroke-linejoin="round"/>
<path d="M4.5 5.5C5.60457 5.5 6.5 4.60457 6.5 3.5C6.5 2.39543 5.60457 1.5 4.5 1.5C3.39543 1.5 2.5 2.39543 2.5 3.5C2.5 4.60457 3.39543 5.5 4.5 5.5Z" stroke="#006699" stroke-linecap="round" stroke-linejoin="round"/>
<path d="M11.5 10.5V9.5C11.4997 9.05687 11.3522 8.62639 11.0807 8.27616C10.8092 7.92593 10.4291 7.67579 10 7.565" stroke="#006699" stroke-linecap="round" stroke-linejoin="round"/>
<path d="M8 1.565C8.43021 1.67515 8.81152 1.92535 9.08382 2.27616C9.35612 2.62696 9.50392 3.05842 9.50392 3.5025C9.50392 3.94659 9.35612 4.37804 9.08382 4.72885C8.81152 5.07965 8.43021 5.32985 8 5.44" stroke="#006699" stroke-linecap="round" stroke-linejoin="round"/>
</svg>
