<svg width="60" height="14" viewBox="0 0 60 14" fill="none" xmlns="http://www.w3.org/2000/svg">
<path d="M2 5.5H10" stroke="#006699" stroke-linecap="round" stroke-linejoin="round"/>
<path d="M2 8.5H10" stroke="#006699" stroke-linecap="round" stroke-linejoin="round"/>
<path d="M5 2.5L4 11.5" stroke="#006699" stroke-linecap="round" stroke-linejoin="round"/>
<path d="M8 2.5L7 11.5" stroke="#006699" stroke-linecap="round" stroke-linejoin="round"/>
<path d="M17.8398 4.66016L17.8691 5.36328C18.334 4.81641 18.9609 4.54297 19.75 4.54297C20.6367 4.54297 21.2402 4.88281 21.5605 5.5625C21.7715 5.25781 22.0449 5.01172 22.3809 4.82422C22.7207 4.63672 23.1211 4.54297 23.582 4.54297C24.9727 4.54297 25.6797 5.2793 25.7031 6.75195V11H24.6191V6.81641C24.6191 6.36328 24.5156 6.02539 24.3086 5.80273C24.1016 5.57617 23.7539 5.46289 23.2656 5.46289C22.8633 5.46289 22.5293 5.58398 22.2637 5.82617C21.998 6.06445 21.8438 6.38672 21.8008 6.79297V11H20.7109V6.8457C20.7109 5.92383 20.2598 5.46289 19.3574 5.46289C18.6465 5.46289 18.1602 5.76562 17.8984 6.37109V11H16.8145V4.66016H17.8398ZM31.2578 11C31.1953 10.875 31.1445 10.6523 31.1055 10.332C30.6016 10.8555 30 11.1172 29.3008 11.1172C28.6758 11.1172 28.1621 10.9414 27.7598 10.5898C27.3613 10.2344 27.1621 9.78516 27.1621 9.24219C27.1621 8.58203 27.4121 8.07031 27.9121 7.70703C28.416 7.33984 29.123 7.15625 30.0332 7.15625H31.0879V6.6582C31.0879 6.2793 30.9746 5.97852 30.748 5.75586C30.5215 5.5293 30.1875 5.41602 29.7461 5.41602C29.3594 5.41602 29.0352 5.51367 28.7734 5.70898C28.5117 5.9043 28.3809 6.14062 28.3809 6.41797H27.291C27.291 6.10156 27.4023 5.79688 27.625 5.50391C27.8516 5.20703 28.1562 4.97266 28.5391 4.80078C28.9258 4.62891 29.3496 4.54297 29.8105 4.54297C30.541 4.54297 31.1133 4.72656 31.5273 5.09375C31.9414 5.45703 32.1562 5.95898 32.1719 6.59961V9.51758C32.1719 10.0996 32.2461 10.5625 32.3945 10.9062V11H31.2578ZM29.459 10.1738C29.7988 10.1738 30.1211 10.0859 30.4258 9.91016C30.7305 9.73438 30.9512 9.50586 31.0879 9.22461V7.92383H30.2383C28.9102 7.92383 28.2461 8.3125 28.2461 9.08984C28.2461 9.42969 28.3594 9.69531 28.5859 9.88672C28.8125 10.0781 29.1035 10.1738 29.459 10.1738ZM36.9355 5.63281C36.7715 5.60547 36.5938 5.5918 36.4023 5.5918C35.6914 5.5918 35.209 5.89453 34.9551 6.5V11H33.8711V4.66016H34.9258L34.9434 5.39258C35.2988 4.82617 35.8027 4.54297 36.4551 4.54297C36.666 4.54297 36.8262 4.57031 36.9355 4.625V5.63281ZM39.707 8.06445L39.0273 8.77344V11H37.9434V2H39.0273V7.44336L39.6074 6.74609L41.582 4.66016H42.9004L40.4336 7.30859L43.1875 11H41.916L39.707 8.06445ZM46.5332 11.1172C45.6738 11.1172 44.9746 10.8359 44.4355 10.2734C43.8965 9.70703 43.627 8.95117 43.627 8.00586V7.80664C43.627 7.17773 43.7461 6.61719 43.9844 6.125C44.2266 5.62891 44.5625 5.24219 44.9922 4.96484C45.4258 4.68359 45.8945 4.54297 46.3984 4.54297C47.2227 4.54297 47.8633 4.81445 48.3203 5.35742C48.7773 5.90039 49.0059 6.67773 49.0059 7.68945V8.14062H44.7109C44.7266 8.76562 44.9082 9.27148 45.2559 9.6582C45.6074 10.041 46.0527 10.2324 46.5918 10.2324C46.9746 10.2324 47.2988 10.1543 47.5645 9.99805C47.8301 9.8418 48.0625 9.63477 48.2617 9.37695L48.9238 9.89258C48.3926 10.709 47.5957 11.1172 46.5332 11.1172ZM46.3984 5.43359C45.9609 5.43359 45.5938 5.59375 45.2969 5.91406C45 6.23047 44.8164 6.67578 44.7461 7.25H47.9219V7.16797C47.8906 6.61719 47.7422 6.19141 47.4766 5.89062C47.2109 5.58594 46.8516 5.43359 46.3984 5.43359ZM51.7363 3.125V4.66016H52.9199V5.49805H51.7363V9.42969C51.7363 9.68359 51.7891 9.875 51.8945 10.0039C52 10.1289 52.1797 10.1914 52.4336 10.1914C52.5586 10.1914 52.7305 10.168 52.9492 10.1211V11C52.6641 11.0781 52.3867 11.1172 52.1172 11.1172C51.6328 11.1172 51.2676 10.9707 51.0215 10.6777C50.7754 10.3848 50.6523 9.96875 50.6523 9.42969V5.49805H49.498V4.66016H50.6523V3.125H51.7363ZM57.8828 9.31836C57.8828 9.02539 57.7715 8.79883 57.5488 8.63867C57.3301 8.47461 56.9453 8.33398 56.3945 8.2168C55.8477 8.09961 55.4121 7.95898 55.0879 7.79492C54.7676 7.63086 54.5293 7.43555 54.373 7.20898C54.2207 6.98242 54.1445 6.71289 54.1445 6.40039C54.1445 5.88086 54.3633 5.44141 54.8008 5.08203C55.2422 4.72266 55.8047 4.54297 56.4883 4.54297C57.207 4.54297 57.7891 4.72852 58.2344 5.09961C58.6836 5.4707 58.9082 5.94531 58.9082 6.52344H57.8184C57.8184 6.22656 57.6914 5.9707 57.4375 5.75586C57.1875 5.54102 56.8711 5.43359 56.4883 5.43359C56.0938 5.43359 55.7852 5.51953 55.5625 5.69141C55.3398 5.86328 55.2285 6.08789 55.2285 6.36523C55.2285 6.62695 55.332 6.82422 55.5391 6.95703C55.7461 7.08984 56.1191 7.2168 56.6582 7.33789C57.2012 7.45898 57.6406 7.60352 57.9766 7.77148C58.3125 7.93945 58.5605 8.14258 58.7207 8.38086C58.8848 8.61523 58.9668 8.90234 58.9668 9.24219C58.9668 9.80859 58.7402 10.2637 58.2871 10.6074C57.834 10.9473 57.2461 11.1172 56.5234 11.1172C56.0156 11.1172 55.5664 11.0273 55.1758 10.8477C54.7852 10.668 54.4785 10.418 54.2559 10.0977C54.0371 9.77344 53.9277 9.42383 53.9277 9.04883H55.0117C55.0312 9.41211 55.1758 9.70117 55.4453 9.91602C55.7188 10.127 56.0781 10.2324 56.5234 10.2324C56.9336 10.2324 57.2617 10.1504 57.5078 9.98633C57.7578 9.81836 57.8828 9.5957 57.8828 9.31836Z" fill="#006699"/>
</svg>
