<svg width="68" height="24" viewBox="0 0 68 24" fill="none" xmlns="http://www.w3.org/2000/svg">
<path d="M3 9L12 2L21 9V20C21 20.5304 20.7893 21.0391 20.4142 21.4142C20.0391 21.7893 19.5304 22 19 22H5C4.46957 22 3.96086 21.7893 3.58579 21.4142C3.21071 21.0391 3 20.5304 3 20V9Z" stroke="#006699" stroke-width="2.33333" stroke-linecap="round" stroke-linejoin="round"/>
<path d="M9 22V12H15V22" stroke="#006699" stroke-width="2.33333" stroke-linecap="round" stroke-linejoin="round"/>
<path d="M38.9141 20H37.1914V15.5771H32.7412V20H31.0117V10.0469H32.7412V14.1895H37.1914V10.0469H38.9141V20ZM40.4932 16.2334C40.4932 15.5088 40.6367 14.8571 40.9238 14.2783C41.2109 13.695 41.6143 13.2484 42.1338 12.9385C42.6533 12.624 43.2503 12.4668 43.9248 12.4668C44.9229 12.4668 45.7318 12.7881 46.3516 13.4307C46.9759 14.0732 47.3132 14.9255 47.3633 15.9873L47.3701 16.377C47.3701 17.1061 47.2288 17.7578 46.9463 18.332C46.6683 18.9062 46.2673 19.3506 45.7432 19.665C45.2236 19.9795 44.6221 20.1367 43.9385 20.1367C42.8949 20.1367 42.0586 19.7904 41.4297 19.0977C40.8053 18.4004 40.4932 17.473 40.4932 16.3154V16.2334ZM42.1543 16.377C42.1543 17.138 42.3115 17.735 42.626 18.168C42.9404 18.5964 43.3779 18.8105 43.9385 18.8105C44.499 18.8105 44.9342 18.5918 45.2441 18.1543C45.5586 17.7168 45.7158 17.0765 45.7158 16.2334C45.7158 15.486 45.554 14.8936 45.2305 14.4561C44.9115 14.0186 44.4762 13.7998 43.9248 13.7998C43.3825 13.7998 42.9518 14.0163 42.6328 14.4492C42.3138 14.8776 42.1543 15.5202 42.1543 16.377ZM50.3369 12.6035L50.3848 13.376C50.9043 12.7699 51.6152 12.4668 52.5176 12.4668C53.5065 12.4668 54.1833 12.8451 54.5479 13.6016C55.0856 12.8451 55.8421 12.4668 56.8174 12.4668C57.6331 12.4668 58.2393 12.6924 58.6357 13.1436C59.0368 13.5947 59.2419 14.2601 59.251 15.1396V20H57.5898V15.1875C57.5898 14.7181 57.4873 14.374 57.2822 14.1553C57.0771 13.9365 56.7376 13.8271 56.2637 13.8271C55.8854 13.8271 55.5755 13.9297 55.334 14.1348C55.097 14.3353 54.9307 14.5996 54.835 14.9277L54.8418 20H53.1807V15.1328C53.1579 14.2624 52.7135 13.8271 51.8477 13.8271C51.1823 13.8271 50.7106 14.0983 50.4326 14.6406V20H48.7715V12.6035H50.3369ZM64.2139 20.1367C63.1611 20.1367 62.3066 19.8063 61.6504 19.1455C60.9987 18.4801 60.6729 17.596 60.6729 16.4932V16.2881C60.6729 15.5498 60.8141 14.8913 61.0967 14.3125C61.3838 13.7292 61.7848 13.2757 62.2998 12.9521C62.8148 12.6286 63.389 12.4668 64.0225 12.4668C65.0296 12.4668 65.8066 12.7881 66.3535 13.4307C66.9049 14.0732 67.1807 14.9824 67.1807 16.1582V16.8281H62.3477C62.3978 17.4388 62.6006 17.9219 62.9561 18.2773C63.3161 18.6328 63.7673 18.8105 64.3096 18.8105C65.0706 18.8105 65.6904 18.5029 66.1689 17.8877L67.0645 18.7422C66.7682 19.1842 66.3717 19.5283 65.875 19.7744C65.3828 20.016 64.8291 20.1367 64.2139 20.1367ZM64.0156 13.7998C63.5599 13.7998 63.1908 13.9593 62.9082 14.2783C62.6302 14.5973 62.4525 15.0417 62.375 15.6113H65.54V15.4883C65.5036 14.9323 65.3555 14.513 65.0957 14.2305C64.8359 13.9434 64.4759 13.7998 64.0156 13.7998Z" fill="#006699"/>
</svg>
