<svg width="106" height="14" viewBox="0 0 106 14" fill="none" xmlns="http://www.w3.org/2000/svg">
<path d="M26.9961 2.46875V8.26953C26.9922 9.07422 26.7383 9.73242 26.2344 10.2441C25.7344 10.7559 25.0547 11.043 24.1953 11.1055L23.8965 11.1172C22.9629 11.1172 22.2188 10.8652 21.6641 10.3613C21.1094 9.85742 20.8281 9.16406 20.8203 8.28125V2.46875H21.9336V8.24609C21.9336 8.86328 22.1035 9.34375 22.4434 9.6875C22.7832 10.0273 23.2676 10.1973 23.8965 10.1973C24.5332 10.1973 25.0195 10.0273 25.3555 9.6875C25.6953 9.34766 25.8652 8.86914 25.8652 8.25195V2.46875H26.9961ZM32.293 9.31836C32.293 9.02539 32.1816 8.79883 31.959 8.63867C31.7402 8.47461 31.3555 8.33398 30.8047 8.2168C30.2578 8.09961 29.8223 7.95898 29.498 7.79492C29.1777 7.63086 28.9395 7.43555 28.7832 7.20898C28.6309 6.98242 28.5547 6.71289 28.5547 6.40039C28.5547 5.88086 28.7734 5.44141 29.2109 5.08203C29.6523 4.72266 30.2148 4.54297 30.8984 4.54297C31.6172 4.54297 32.1992 4.72852 32.6445 5.09961C33.0938 5.4707 33.3184 5.94531 33.3184 6.52344H32.2285C32.2285 6.22656 32.1016 5.9707 31.8477 5.75586C31.5977 5.54102 31.2812 5.43359 30.8984 5.43359C30.5039 5.43359 30.1953 5.51953 29.9727 5.69141C29.75 5.86328 29.6387 6.08789 29.6387 6.36523C29.6387 6.62695 29.7422 6.82422 29.9492 6.95703C30.1562 7.08984 30.5293 7.2168 31.0684 7.33789C31.6113 7.45898 32.0508 7.60352 32.3867 7.77148C32.7227 7.93945 32.9707 8.14258 33.1309 8.38086C33.2949 8.61523 33.377 8.90234 33.377 9.24219C33.377 9.80859 33.1504 10.2637 32.6973 10.6074C32.2441 10.9473 31.6562 11.1172 30.9336 11.1172C30.4258 11.1172 29.9766 11.0273 29.5859 10.8477C29.1953 10.668 28.8887 10.418 28.666 10.0977C28.4473 9.77344 28.3379 9.42383 28.3379 9.04883H29.4219C29.4414 9.41211 29.5859 9.70117 29.8555 9.91602C30.1289 10.127 30.4883 10.2324 30.9336 10.2324C31.3438 10.2324 31.6719 10.1504 31.918 9.98633C32.168 9.81836 32.293 9.5957 32.293 9.31836ZM37.4199 11.1172C36.5605 11.1172 35.8613 10.8359 35.3223 10.2734C34.7832 9.70703 34.5137 8.95117 34.5137 8.00586V7.80664C34.5137 7.17773 34.6328 6.61719 34.8711 6.125C35.1133 5.62891 35.4492 5.24219 35.8789 4.96484C36.3125 4.68359 36.7812 4.54297 37.2852 4.54297C38.1094 4.54297 38.75 4.81445 39.207 5.35742C39.6641 5.90039 39.8926 6.67773 39.8926 7.68945V8.14062H35.5977C35.6133 8.76562 35.7949 9.27148 36.1426 9.6582C36.4941 10.041 36.9395 10.2324 37.4785 10.2324C37.8613 10.2324 38.1855 10.1543 38.4512 9.99805C38.7168 9.8418 38.9492 9.63477 39.1484 9.37695L39.8105 9.89258C39.2793 10.709 38.4824 11.1172 37.4199 11.1172ZM37.2852 5.43359C36.8477 5.43359 36.4805 5.59375 36.1836 5.91406C35.8867 6.23047 35.7031 6.67578 35.6328 7.25H38.8086V7.16797C38.7773 6.61719 38.6289 6.19141 38.3633 5.89062C38.0977 5.58594 37.7383 5.43359 37.2852 5.43359ZM44.2168 5.63281C44.0527 5.60547 43.875 5.5918 43.6836 5.5918C42.9727 5.5918 42.4902 5.89453 42.2363 6.5V11H41.1523V4.66016H42.207L42.2246 5.39258C42.5801 4.82617 43.084 4.54297 43.7363 4.54297C43.9473 4.54297 44.1074 4.57031 44.2168 4.625V5.63281ZM53.1875 7.05664H49.4902V10.0801H53.7852V11H48.3652V2.46875H53.7266V3.39453H49.4902V6.13672H53.1875V7.05664ZM57.1426 6.97461L58.5488 4.66016H59.8145L57.7402 7.79492L59.8789 11H58.625L57.1602 8.62695L55.6953 11H54.4355L56.5742 7.79492L54.5 4.66016H55.7539L57.1426 6.97461ZM66.3242 7.90039C66.3242 8.86523 66.1035 9.64258 65.6621 10.2324C65.2207 10.8223 64.623 11.1172 63.8691 11.1172C63.0996 11.1172 62.4941 10.873 62.0527 10.3848V13.4375H60.9688V4.66016H61.959L62.0117 5.36328C62.4531 4.81641 63.0664 4.54297 63.8516 4.54297C64.6133 4.54297 65.2148 4.83008 65.6562 5.4043C66.1016 5.97852 66.3242 6.77734 66.3242 7.80078V7.90039ZM65.2402 7.77734C65.2402 7.0625 65.0879 6.49805 64.7832 6.08398C64.4785 5.66992 64.0605 5.46289 63.5293 5.46289C62.873 5.46289 62.3809 5.75391 62.0527 6.33594V9.36523C62.377 9.94336 62.873 10.2324 63.541 10.2324C64.0605 10.2324 64.4727 10.0273 64.7773 9.61719C65.0859 9.20312 65.2402 8.58984 65.2402 7.77734ZM70.3379 11.1172C69.4785 11.1172 68.7793 10.8359 68.2402 10.2734C67.7012 9.70703 67.4316 8.95117 67.4316 8.00586V7.80664C67.4316 7.17773 67.5508 6.61719 67.7891 6.125C68.0312 5.62891 68.3672 5.24219 68.7969 4.96484C69.2305 4.68359 69.6992 4.54297 70.2031 4.54297C71.0273 4.54297 71.668 4.81445 72.125 5.35742C72.582 5.90039 72.8105 6.67773 72.8105 7.68945V8.14062H68.5156C68.5312 8.76562 68.7129 9.27148 69.0605 9.6582C69.4121 10.041 69.8574 10.2324 70.3965 10.2324C70.7793 10.2324 71.1035 10.1543 71.3691 9.99805C71.6348 9.8418 71.8672 9.63477 72.0664 9.37695L72.7285 9.89258C72.1973 10.709 71.4004 11.1172 70.3379 11.1172ZM70.2031 5.43359C69.7656 5.43359 69.3984 5.59375 69.1016 5.91406C68.8047 6.23047 68.6211 6.67578 68.5508 7.25H71.7266V7.16797C71.6953 6.61719 71.5469 6.19141 71.2812 5.89062C71.0156 5.58594 70.6562 5.43359 70.2031 5.43359ZM77.1348 5.63281C76.9707 5.60547 76.793 5.5918 76.6016 5.5918C75.8906 5.5918 75.4082 5.89453 75.1543 6.5V11H74.0703V4.66016H75.125L75.1426 5.39258C75.498 4.82617 76.002 4.54297 76.6543 4.54297C76.8652 4.54297 77.0254 4.57031 77.1348 4.625V5.63281ZM79.3145 11H78.2305V4.66016H79.3145V11ZM78.1426 2.97852C78.1426 2.80273 78.1953 2.6543 78.3008 2.5332C78.4102 2.41211 78.5703 2.35156 78.7812 2.35156C78.9922 2.35156 79.1523 2.41211 79.2617 2.5332C79.3711 2.6543 79.4258 2.80273 79.4258 2.97852C79.4258 3.1543 79.3711 3.30078 79.2617 3.41797C79.1523 3.53516 78.9922 3.59375 78.7812 3.59375C78.5703 3.59375 78.4102 3.53516 78.3008 3.41797C78.1953 3.30078 78.1426 3.1543 78.1426 2.97852ZM83.6855 11.1172C82.8262 11.1172 82.127 10.8359 81.5879 10.2734C81.0488 9.70703 80.7793 8.95117 80.7793 8.00586V7.80664C80.7793 7.17773 80.8984 6.61719 81.1367 6.125C81.3789 5.62891 81.7148 5.24219 82.1445 4.96484C82.5781 4.68359 83.0469 4.54297 83.5508 4.54297C84.375 4.54297 85.0156 4.81445 85.4727 5.35742C85.9297 5.90039 86.1582 6.67773 86.1582 7.68945V8.14062H81.8633C81.8789 8.76562 82.0605 9.27148 82.4082 9.6582C82.7598 10.041 83.2051 10.2324 83.7441 10.2324C84.127 10.2324 84.4512 10.1543 84.7168 9.99805C84.9824 9.8418 85.2148 9.63477 85.4141 9.37695L86.0762 9.89258C85.5449 10.709 84.748 11.1172 83.6855 11.1172ZM83.5508 5.43359C83.1133 5.43359 82.7461 5.59375 82.4492 5.91406C82.1523 6.23047 81.9688 6.67578 81.8984 7.25H85.0742V7.16797C85.043 6.61719 84.8945 6.19141 84.6289 5.89062C84.3633 5.58594 84.0039 5.43359 83.5508 5.43359ZM88.4434 4.66016L88.4785 5.45703C88.9629 4.84766 89.5957 4.54297 90.377 4.54297C91.7168 4.54297 92.3926 5.29883 92.4043 6.81055V11H91.3203V6.80469C91.3164 6.34766 91.2109 6.00977 91.0039 5.79102C90.8008 5.57227 90.4824 5.46289 90.0488 5.46289C89.6973 5.46289 89.3887 5.55664 89.123 5.74414C88.8574 5.93164 88.6504 6.17773 88.502 6.48242V11H87.418V4.66016H88.4434ZM96.582 10.2324C96.9688 10.2324 97.3066 10.1152 97.5957 9.88086C97.8848 9.64648 98.0449 9.35352 98.0762 9.00195H99.1016C99.082 9.36523 98.957 9.71094 98.7266 10.0391C98.4961 10.3672 98.1875 10.6289 97.8008 10.8242C97.418 11.0195 97.0117 11.1172 96.582 11.1172C95.7188 11.1172 95.0312 10.8301 94.5195 10.2559C94.0117 9.67773 93.7578 8.88867 93.7578 7.88867V7.70703C93.7578 7.08984 93.8711 6.54102 94.0977 6.06055C94.3242 5.58008 94.6484 5.20703 95.0703 4.94141C95.4961 4.67578 95.998 4.54297 96.5762 4.54297C97.2871 4.54297 97.877 4.75586 98.3457 5.18164C98.8184 5.60742 99.0703 6.16016 99.1016 6.83984H98.0762C98.0449 6.42969 97.8887 6.09375 97.6074 5.83203C97.3301 5.56641 96.9863 5.43359 96.5762 5.43359C96.0254 5.43359 95.5977 5.63281 95.293 6.03125C94.9922 6.42578 94.8418 6.99805 94.8418 7.74805V7.95312C94.8418 8.68359 94.9922 9.24609 95.293 9.64062C95.5938 10.0352 96.0234 10.2324 96.582 10.2324ZM102.951 11.1172C102.092 11.1172 101.393 10.8359 100.854 10.2734C100.314 9.70703 100.045 8.95117 100.045 8.00586V7.80664C100.045 7.17773 100.164 6.61719 100.402 6.125C100.645 5.62891 100.98 5.24219 101.41 4.96484C101.844 4.68359 102.312 4.54297 102.816 4.54297C103.641 4.54297 104.281 4.81445 104.738 5.35742C105.195 5.90039 105.424 6.67773 105.424 7.68945V8.14062H101.129C101.145 8.76562 101.326 9.27148 101.674 9.6582C102.025 10.041 102.471 10.2324 103.01 10.2324C103.393 10.2324 103.717 10.1543 103.982 9.99805C104.248 9.8418 104.48 9.63477 104.68 9.37695L105.342 9.89258C104.811 10.709 104.014 11.1172 102.951 11.1172ZM102.816 5.43359C102.379 5.43359 102.012 5.59375 101.715 5.91406C101.418 6.23047 101.234 6.67578 101.164 7.25H104.34V7.16797C104.309 6.61719 104.16 6.19141 103.895 5.89062C103.629 5.58594 103.27 5.43359 102.816 5.43359Z" fill="#006699"/>
<path d="M8.5 10.5V9.5C8.5 8.96957 8.28929 8.46086 7.91421 8.08579C7.53914 7.71071 7.03043 7.5 6.5 7.5H2.5C1.96957 7.5 1.46086 7.71071 1.08579 8.08579C0.710714 8.46086 0.5 8.96957 0.5 9.5V10.5" stroke="#006699" stroke-linecap="round" stroke-linejoin="round"/>
<path d="M4.5 5.5C5.60457 5.5 6.5 4.60457 6.5 3.5C6.5 2.39543 5.60457 1.5 4.5 1.5C3.39543 1.5 2.5 2.39543 2.5 3.5C2.5 4.60457 3.39543 5.5 4.5 5.5Z" stroke="#006699" stroke-linecap="round" stroke-linejoin="round"/>
<path d="M11.5 10.5V9.5C11.4997 9.05687 11.3522 8.62639 11.0807 8.27616C10.8092 7.92593 10.4291 7.67579 10 7.565" stroke="#006699" stroke-linecap="round" stroke-linejoin="round"/>
<path d="M8 1.565C8.43021 1.67515 8.81152 1.92535 9.08382 2.27616C9.35612 2.62696 9.50392 3.05842 9.50392 3.5025C9.50392 3.94659 9.35612 4.37804 9.08382 4.72885C8.81152 5.07965 8.43021 5.32985 8 5.44" stroke="#006699" stroke-linecap="round" stroke-linejoin="round"/>
</svg>
