<svg width="52" height="14" viewBox="0 0 52 14" fill="none" xmlns="http://www.w3.org/2000/svg">
<path d="M2 5.5H10" stroke="#006699" stroke-linecap="round" stroke-linejoin="round"/>
<path d="M2 8.5H10" stroke="#006699" stroke-linecap="round" stroke-linejoin="round"/>
<path d="M5 2.5L4 11.5" stroke="#006699" stroke-linecap="round" stroke-linejoin="round"/>
<path d="M8 2.5L7 11.5" stroke="#006699" stroke-linecap="round" stroke-linejoin="round"/>
<path d="M17.8398 4.66016L17.8691 5.36328C18.334 4.81641 18.9609 4.54297 19.75 4.54297C20.6367 4.54297 21.2402 4.88281 21.5605 5.5625C21.7715 5.25781 22.0449 5.01172 22.3809 4.82422C22.7207 4.63672 23.1211 4.54297 23.582 4.54297C24.9727 4.54297 25.6797 5.2793 25.7031 6.75195V11H24.6191V6.81641C24.6191 6.36328 24.5156 6.02539 24.3086 5.80273C24.1016 5.57617 23.7539 5.46289 23.2656 5.46289C22.8633 5.46289 22.5293 5.58398 22.2637 5.82617C21.998 6.06445 21.8438 6.38672 21.8008 6.79297V11H20.7109V6.8457C20.7109 5.92383 20.2598 5.46289 19.3574 5.46289C18.6465 5.46289 18.1602 5.76562 17.8984 6.37109V11H16.8145V4.66016H17.8398ZM27.0566 7.77148C27.0566 7.15039 27.1777 6.5918 27.4199 6.0957C27.666 5.59961 28.0059 5.2168 28.4395 4.94727C28.877 4.67773 29.375 4.54297 29.9336 4.54297C30.7969 4.54297 31.4941 4.8418 32.0254 5.43945C32.5605 6.03711 32.8281 6.83203 32.8281 7.82422V7.90039C32.8281 8.51758 32.709 9.07227 32.4707 9.56445C32.2363 10.0527 31.8984 10.4336 31.457 10.707C31.0195 10.9805 30.5156 11.1172 29.9453 11.1172C29.0859 11.1172 28.3887 10.8184 27.8535 10.2207C27.3223 9.62305 27.0566 8.83203 27.0566 7.84766V7.77148ZM28.1465 7.90039C28.1465 8.60352 28.3086 9.16797 28.6328 9.59375C28.9609 10.0195 29.3984 10.2324 29.9453 10.2324C30.4961 10.2324 30.9336 10.0176 31.2578 9.58789C31.582 9.1543 31.7441 8.54883 31.7441 7.77148C31.7441 7.07617 31.5781 6.51367 31.2461 6.08398C30.918 5.65039 30.4805 5.43359 29.9336 5.43359C29.3984 5.43359 28.9668 5.64648 28.6387 6.07227C28.3105 6.49805 28.1465 7.10742 28.1465 7.90039ZM35.2129 4.66016L35.248 5.45703C35.7324 4.84766 36.3652 4.54297 37.1465 4.54297C38.4863 4.54297 39.1621 5.29883 39.1738 6.81055V11H38.0898V6.80469C38.0859 6.34766 37.9805 6.00977 37.7734 5.79102C37.5703 5.57227 37.252 5.46289 36.8184 5.46289C36.4668 5.46289 36.1582 5.55664 35.8926 5.74414C35.627 5.93164 35.4199 6.17773 35.2715 6.48242V11H34.1875V4.66016H35.2129ZM43.4395 11.1172C42.5801 11.1172 41.8809 10.8359 41.3418 10.2734C40.8027 9.70703 40.5332 8.95117 40.5332 8.00586V7.80664C40.5332 7.17773 40.6523 6.61719 40.8906 6.125C41.1328 5.62891 41.4688 5.24219 41.8984 4.96484C42.332 4.68359 42.8008 4.54297 43.3047 4.54297C44.1289 4.54297 44.7695 4.81445 45.2266 5.35742C45.6836 5.90039 45.9121 6.67773 45.9121 7.68945V8.14062H41.6172C41.6328 8.76562 41.8145 9.27148 42.1621 9.6582C42.5137 10.041 42.959 10.2324 43.498 10.2324C43.8809 10.2324 44.2051 10.1543 44.4707 9.99805C44.7363 9.8418 44.9688 9.63477 45.168 9.37695L45.8301 9.89258C45.2988 10.709 44.502 11.1172 43.4395 11.1172ZM43.3047 5.43359C42.8672 5.43359 42.5 5.59375 42.2031 5.91406C41.9062 6.23047 41.7227 6.67578 41.6523 7.25H44.8281V7.16797C44.7969 6.61719 44.6484 6.19141 44.3828 5.89062C44.1172 5.58594 43.7578 5.43359 43.3047 5.43359ZM49.1641 9.41211L50.6406 4.66016H51.8008L49.252 11.9785C48.8574 13.0332 48.2305 13.5605 47.3711 13.5605L47.166 13.543L46.7617 13.4668V12.5879L47.0547 12.6113C47.4219 12.6113 47.707 12.5371 47.9102 12.3887C48.1172 12.2402 48.2871 11.9688 48.4199 11.5742L48.6602 10.9297L46.3984 4.66016H47.582L49.1641 9.41211Z" fill="#006699"/>
</svg>
