<svg width="160" height="14" viewBox="0 0 160 14" fill="none" xmlns="http://www.w3.org/2000/svg">
<path d="M25.7012 8.77344H22.127L21.3242 11H20.1641L23.4219 2.46875H24.4062L27.6699 11H26.5156L25.7012 8.77344ZM22.4668 7.84766H25.3672L23.9141 3.85742L22.4668 7.84766ZM29.6738 4.66016L29.709 5.45703C30.1934 4.84766 30.8262 4.54297 31.6074 4.54297C32.9473 4.54297 33.623 5.29883 33.6348 6.81055V11H32.5508V6.80469C32.5469 6.34766 32.4414 6.00977 32.2344 5.79102C32.0312 5.57227 31.7129 5.46289 31.2793 5.46289C30.9277 5.46289 30.6191 5.55664 30.3535 5.74414C30.0879 5.93164 29.8809 6.17773 29.7324 6.48242V11H28.6484V4.66016H29.6738ZM35.0059 7.77734C35.0059 6.80469 35.2363 6.02344 35.6973 5.43359C36.1582 4.83984 36.7617 4.54297 37.5078 4.54297C38.25 4.54297 38.8379 4.79688 39.2715 5.30469V2H40.3555V11H39.3594L39.3066 10.3203C38.873 10.8516 38.2695 11.1172 37.4961 11.1172C36.7617 11.1172 36.1621 10.8164 35.6973 10.2148C35.2363 9.61328 35.0059 8.82812 35.0059 7.85938V7.77734ZM36.0898 7.90039C36.0898 8.61914 36.2383 9.18164 36.5352 9.58789C36.832 9.99414 37.2422 10.1973 37.7656 10.1973C38.4531 10.1973 38.9551 9.88867 39.2715 9.27148V6.35938C38.9473 5.76172 38.4492 5.46289 37.7773 5.46289C37.2461 5.46289 36.832 5.66797 36.5352 6.07812C36.2383 6.48828 36.0898 7.0957 36.0898 7.90039ZM45.1074 5.63281C44.9434 5.60547 44.7656 5.5918 44.5742 5.5918C43.8633 5.5918 43.3809 5.89453 43.127 6.5V11H42.043V4.66016H43.0977L43.1152 5.39258C43.4707 4.82617 43.9746 4.54297 44.627 4.54297C44.8379 4.54297 44.998 4.57031 45.1074 4.625V5.63281ZM45.7051 7.77148C45.7051 7.15039 45.8262 6.5918 46.0684 6.0957C46.3145 5.59961 46.6543 5.2168 47.0879 4.94727C47.5254 4.67773 48.0234 4.54297 48.582 4.54297C49.4453 4.54297 50.1426 4.8418 50.6738 5.43945C51.209 6.03711 51.4766 6.83203 51.4766 7.82422V7.90039C51.4766 8.51758 51.3574 9.07227 51.1191 9.56445C50.8848 10.0527 50.5469 10.4336 50.1055 10.707C49.668 10.9805 49.1641 11.1172 48.5938 11.1172C47.7344 11.1172 47.0371 10.8184 46.502 10.2207C45.9707 9.62305 45.7051 8.83203 45.7051 7.84766V7.77148ZM46.7949 7.90039C46.7949 8.60352 46.957 9.16797 47.2812 9.59375C47.6094 10.0195 48.0469 10.2324 48.5938 10.2324C49.1445 10.2324 49.582 10.0176 49.9062 9.58789C50.2305 9.1543 50.3926 8.54883 50.3926 7.77148C50.3926 7.07617 50.2266 6.51367 49.8945 6.08398C49.5664 5.65039 49.1289 5.43359 48.582 5.43359C48.0469 5.43359 47.6152 5.64648 47.2871 6.07227C46.959 6.49805 46.7949 7.10742 46.7949 7.90039ZM54.0137 11H52.9297V4.66016H54.0137V11ZM52.8418 2.97852C52.8418 2.80273 52.8945 2.6543 53 2.5332C53.1094 2.41211 53.2695 2.35156 53.4805 2.35156C53.6914 2.35156 53.8516 2.41211 53.9609 2.5332C54.0703 2.6543 54.125 2.80273 54.125 2.97852C54.125 3.1543 54.0703 3.30078 53.9609 3.41797C53.8516 3.53516 53.6914 3.59375 53.4805 3.59375C53.2695 3.59375 53.1094 3.53516 53 3.41797C52.8945 3.30078 52.8418 3.1543 52.8418 2.97852ZM55.4902 7.77734C55.4902 6.80469 55.7207 6.02344 56.1816 5.43359C56.6426 4.83984 57.2461 4.54297 57.9922 4.54297C58.7344 4.54297 59.3223 4.79688 59.7559 5.30469V2H60.8398V11H59.8438L59.791 10.3203C59.3574 10.8516 58.7539 11.1172 57.9805 11.1172C57.2461 11.1172 56.6465 10.8164 56.1816 10.2148C55.7207 9.61328 55.4902 8.82812 55.4902 7.85938V7.77734ZM56.5742 7.90039C56.5742 8.61914 56.7227 9.18164 57.0195 9.58789C57.3164 9.99414 57.7266 10.1973 58.25 10.1973C58.9375 10.1973 59.4395 9.88867 59.7559 9.27148V6.35938C59.4316 5.76172 58.9336 5.46289 58.2617 5.46289C57.7305 5.46289 57.3164 5.66797 57.0195 6.07812C56.7227 6.48828 56.5742 7.0957 56.5742 7.90039ZM65.6738 11V2.46875H68.082C68.8242 2.46875 69.4805 2.63281 70.0508 2.96094C70.6211 3.28906 71.0605 3.75586 71.3691 4.36133C71.6816 4.9668 71.8398 5.66211 71.8438 6.44727V6.99219C71.8438 7.79688 71.6875 8.50195 71.375 9.10742C71.0664 9.71289 70.623 10.1777 70.0449 10.502C69.4707 10.8262 68.8008 10.9922 68.0352 11H65.6738ZM66.7988 3.39453V10.0801H67.9824C68.8496 10.0801 69.5234 9.81055 70.0039 9.27148C70.4883 8.73242 70.7305 7.96484 70.7305 6.96875V6.4707C70.7305 5.50195 70.502 4.75 70.0449 4.21484C69.5918 3.67578 68.9473 3.40234 68.1113 3.39453H66.7988ZM76.0098 11.1172C75.1504 11.1172 74.4512 10.8359 73.9121 10.2734C73.373 9.70703 73.1035 8.95117 73.1035 8.00586V7.80664C73.1035 7.17773 73.2227 6.61719 73.4609 6.125C73.7031 5.62891 74.0391 5.24219 74.4688 4.96484C74.9023 4.68359 75.3711 4.54297 75.875 4.54297C76.6992 4.54297 77.3398 4.81445 77.7969 5.35742C78.2539 5.90039 78.4824 6.67773 78.4824 7.68945V8.14062H74.1875C74.2031 8.76562 74.3848 9.27148 74.7324 9.6582C75.084 10.041 75.5293 10.2324 76.0684 10.2324C76.4512 10.2324 76.7754 10.1543 77.041 9.99805C77.3066 9.8418 77.5391 9.63477 77.7383 9.37695L78.4004 9.89258C77.8691 10.709 77.0723 11.1172 76.0098 11.1172ZM75.875 5.43359C75.4375 5.43359 75.0703 5.59375 74.7734 5.91406C74.4766 6.23047 74.293 6.67578 74.2227 7.25H77.3984V7.16797C77.3672 6.61719 77.2188 6.19141 76.9531 5.89062C76.6875 5.58594 76.3281 5.43359 75.875 5.43359ZM81.752 9.5293L83.3223 4.66016H84.4297L82.1562 11H81.3301L79.0332 4.66016H80.1406L81.752 9.5293ZM88.0215 11.1172C87.1621 11.1172 86.4629 10.8359 85.9238 10.2734C85.3848 9.70703 85.1152 8.95117 85.1152 8.00586V7.80664C85.1152 7.17773 85.2344 6.61719 85.4727 6.125C85.7148 5.62891 86.0508 5.24219 86.4805 4.96484C86.9141 4.68359 87.3828 4.54297 87.8867 4.54297C88.7109 4.54297 89.3516 4.81445 89.8086 5.35742C90.2656 5.90039 90.4941 6.67773 90.4941 7.68945V8.14062H86.1992C86.2148 8.76562 86.3965 9.27148 86.7441 9.6582C87.0957 10.041 87.541 10.2324 88.0801 10.2324C88.4629 10.2324 88.7871 10.1543 89.0527 9.99805C89.3184 9.8418 89.5508 9.63477 89.75 9.37695L90.4121 9.89258C89.8809 10.709 89.084 11.1172 88.0215 11.1172ZM87.8867 5.43359C87.4492 5.43359 87.082 5.59375 86.7852 5.91406C86.4883 6.23047 86.3047 6.67578 86.2344 7.25H89.4102V7.16797C89.3789 6.61719 89.2305 6.19141 88.9648 5.89062C88.6992 5.58594 88.3398 5.43359 87.8867 5.43359ZM92.9316 11H91.8477V2H92.9316V11ZM94.3848 7.77148C94.3848 7.15039 94.5059 6.5918 94.748 6.0957C94.9941 5.59961 95.334 5.2168 95.7676 4.94727C96.2051 4.67773 96.7031 4.54297 97.2617 4.54297C98.125 4.54297 98.8223 4.8418 99.3535 5.43945C99.8887 6.03711 100.156 6.83203 100.156 7.82422V7.90039C100.156 8.51758 100.037 9.07227 99.7988 9.56445C99.5645 10.0527 99.2266 10.4336 98.7852 10.707C98.3477 10.9805 97.8438 11.1172 97.2734 11.1172C96.4141 11.1172 95.7168 10.8184 95.1816 10.2207C94.6504 9.62305 94.3848 8.83203 94.3848 7.84766V7.77148ZM95.4746 7.90039C95.4746 8.60352 95.6367 9.16797 95.9609 9.59375C96.2891 10.0195 96.7266 10.2324 97.2734 10.2324C97.8242 10.2324 98.2617 10.0176 98.5859 9.58789C98.9102 9.1543 99.0723 8.54883 99.0723 7.77148C99.0723 7.07617 98.9062 6.51367 98.5742 6.08398C98.2461 5.65039 97.8086 5.43359 97.2617 5.43359C96.7266 5.43359 96.2949 5.64648 95.9668 6.07227C95.6387 6.49805 95.4746 7.10742 95.4746 7.90039ZM106.871 7.90039C106.871 8.86523 106.65 9.64258 106.209 10.2324C105.768 10.8223 105.17 11.1172 104.416 11.1172C103.646 11.1172 103.041 10.873 102.6 10.3848V13.4375H101.516V4.66016H102.506L102.559 5.36328C103 4.81641 103.613 4.54297 104.398 4.54297C105.16 4.54297 105.762 4.83008 106.203 5.4043C106.648 5.97852 106.871 6.77734 106.871 7.80078V7.90039ZM105.787 7.77734C105.787 7.0625 105.635 6.49805 105.33 6.08398C105.025 5.66992 104.607 5.46289 104.076 5.46289C103.42 5.46289 102.928 5.75391 102.6 6.33594V9.36523C102.924 9.94336 103.42 10.2324 104.088 10.2324C104.607 10.2324 105.02 10.0273 105.324 9.61719C105.633 9.20312 105.787 8.58984 105.787 7.77734ZM110.885 11.1172C110.025 11.1172 109.326 10.8359 108.787 10.2734C108.248 9.70703 107.979 8.95117 107.979 8.00586V7.80664C107.979 7.17773 108.098 6.61719 108.336 6.125C108.578 5.62891 108.914 5.24219 109.344 4.96484C109.777 4.68359 110.246 4.54297 110.75 4.54297C111.574 4.54297 112.215 4.81445 112.672 5.35742C113.129 5.90039 113.357 6.67773 113.357 7.68945V8.14062H109.062C109.078 8.76562 109.26 9.27148 109.607 9.6582C109.959 10.041 110.404 10.2324 110.943 10.2324C111.326 10.2324 111.65 10.1543 111.916 9.99805C112.182 9.8418 112.414 9.63477 112.613 9.37695L113.275 9.89258C112.744 10.709 111.947 11.1172 110.885 11.1172ZM110.75 5.43359C110.312 5.43359 109.945 5.59375 109.648 5.91406C109.352 6.23047 109.168 6.67578 109.098 7.25H112.273V7.16797C112.242 6.61719 112.094 6.19141 111.828 5.89062C111.562 5.58594 111.203 5.43359 110.75 5.43359ZM117.682 5.63281C117.518 5.60547 117.34 5.5918 117.148 5.5918C116.438 5.5918 115.955 5.89453 115.701 6.5V11H114.617V4.66016H115.672L115.689 5.39258C116.045 4.82617 116.549 4.54297 117.201 4.54297C117.412 4.54297 117.572 4.57031 117.682 4.625V5.63281ZM122.375 9.31836C122.375 9.02539 122.264 8.79883 122.041 8.63867C121.822 8.47461 121.438 8.33398 120.887 8.2168C120.34 8.09961 119.904 7.95898 119.58 7.79492C119.26 7.63086 119.021 7.43555 118.865 7.20898C118.713 6.98242 118.637 6.71289 118.637 6.40039C118.637 5.88086 118.855 5.44141 119.293 5.08203C119.734 4.72266 120.297 4.54297 120.98 4.54297C121.699 4.54297 122.281 4.72852 122.727 5.09961C123.176 5.4707 123.4 5.94531 123.4 6.52344H122.311C122.311 6.22656 122.184 5.9707 121.93 5.75586C121.68 5.54102 121.363 5.43359 120.98 5.43359C120.586 5.43359 120.277 5.51953 120.055 5.69141C119.832 5.86328 119.721 6.08789 119.721 6.36523C119.721 6.62695 119.824 6.82422 120.031 6.95703C120.238 7.08984 120.611 7.2168 121.15 7.33789C121.693 7.45898 122.133 7.60352 122.469 7.77148C122.805 7.93945 123.053 8.14258 123.213 8.38086C123.377 8.61523 123.459 8.90234 123.459 9.24219C123.459 9.80859 123.232 10.2637 122.779 10.6074C122.326 10.9473 121.738 11.1172 121.016 11.1172C120.508 11.1172 120.059 11.0273 119.668 10.8477C119.277 10.668 118.971 10.418 118.748 10.0977C118.529 9.77344 118.42 9.42383 118.42 9.04883H119.504C119.523 9.41211 119.668 9.70117 119.938 9.91602C120.211 10.127 120.57 10.2324 121.016 10.2324C121.426 10.2324 121.754 10.1504 122 9.98633C122.25 9.81836 122.375 9.5957 122.375 9.31836ZM134.316 9.88086C134.027 10.2949 133.623 10.6055 133.104 10.8125C132.588 11.0156 131.986 11.1172 131.299 11.1172C130.604 11.1172 129.986 10.9551 129.447 10.6309C128.908 10.3027 128.49 9.83789 128.193 9.23633C127.9 8.63477 127.75 7.9375 127.742 7.14453V6.40039C127.742 5.11523 128.041 4.11914 128.639 3.41211C129.24 2.70508 130.084 2.35156 131.17 2.35156C132.061 2.35156 132.777 2.58008 133.32 3.03711C133.863 3.49023 134.195 4.13477 134.316 4.9707H133.191C132.98 3.8418 132.309 3.27734 131.176 3.27734C130.422 3.27734 129.85 3.54297 129.459 4.07422C129.072 4.60156 128.877 5.36719 128.873 6.37109V7.06836C128.873 8.02539 129.092 8.78711 129.529 9.35352C129.967 9.91602 130.559 10.1973 131.305 10.1973C131.727 10.1973 132.096 10.1504 132.412 10.0566C132.729 9.96289 132.99 9.80469 133.197 9.58203V7.66602H131.223V6.75195H134.316V9.88086ZM139.092 5.63281C138.928 5.60547 138.75 5.5918 138.559 5.5918C137.848 5.5918 137.365 5.89453 137.111 6.5V11H136.027V4.66016H137.082L137.1 5.39258C137.455 4.82617 137.959 4.54297 138.611 4.54297C138.822 4.54297 138.982 4.57031 139.092 4.625V5.63281ZM139.689 7.77148C139.689 7.15039 139.811 6.5918 140.053 6.0957C140.299 5.59961 140.639 5.2168 141.072 4.94727C141.51 4.67773 142.008 4.54297 142.566 4.54297C143.43 4.54297 144.127 4.8418 144.658 5.43945C145.193 6.03711 145.461 6.83203 145.461 7.82422V7.90039C145.461 8.51758 145.342 9.07227 145.104 9.56445C144.869 10.0527 144.531 10.4336 144.09 10.707C143.652 10.9805 143.148 11.1172 142.578 11.1172C141.719 11.1172 141.021 10.8184 140.486 10.2207C139.955 9.62305 139.689 8.83203 139.689 7.84766V7.77148ZM140.779 7.90039C140.779 8.60352 140.941 9.16797 141.266 9.59375C141.594 10.0195 142.031 10.2324 142.578 10.2324C143.129 10.2324 143.566 10.0176 143.891 9.58789C144.215 9.1543 144.377 8.54883 144.377 7.77148C144.377 7.07617 144.211 6.51367 143.879 6.08398C143.551 5.65039 143.113 5.43359 142.566 5.43359C142.031 5.43359 141.6 5.64648 141.271 6.07227C140.943 6.49805 140.779 7.10742 140.779 7.90039ZM150.734 10.373C150.312 10.8691 149.693 11.1172 148.877 11.1172C148.201 11.1172 147.686 10.9219 147.33 10.5312C146.979 10.1367 146.801 9.55469 146.797 8.78516V4.66016H147.881V8.75586C147.881 9.7168 148.271 10.1973 149.053 10.1973C149.881 10.1973 150.432 9.88867 150.705 9.27148V4.66016H151.789V11H150.758L150.734 10.373ZM158.797 7.90039C158.797 8.86523 158.576 9.64258 158.135 10.2324C157.693 10.8223 157.096 11.1172 156.342 11.1172C155.572 11.1172 154.967 10.873 154.525 10.3848V13.4375H153.441V4.66016H154.432L154.484 5.36328C154.926 4.81641 155.539 4.54297 156.324 4.54297C157.086 4.54297 157.688 4.83008 158.129 5.4043C158.574 5.97852 158.797 6.77734 158.797 7.80078V7.90039ZM157.713 7.77734C157.713 7.0625 157.561 6.49805 157.256 6.08398C156.951 5.66992 156.533 5.46289 156.002 5.46289C155.346 5.46289 154.854 5.75391 154.525 6.33594V9.36523C154.85 9.94336 155.346 10.2324 156.014 10.2324C156.533 10.2324 156.945 10.0273 157.25 9.61719C157.559 9.20312 157.713 8.58984 157.713 7.77734Z" fill="#006699"/>
<path d="M8.5 10.5V9.5C8.5 8.96957 8.28929 8.46086 7.91421 8.08579C7.53914 7.71071 7.03043 7.5 6.5 7.5H2.5C1.96957 7.5 1.46086 7.71071 1.08579 8.08579C0.710714 8.46086 0.5 8.96957 0.5 9.5V10.5" stroke="#006699" stroke-linecap="round" stroke-linejoin="round"/>
<path d="M4.5 5.5C5.60457 5.5 6.5 4.60457 6.5 3.5C6.5 2.39543 5.60457 1.5 4.5 1.5C3.39543 1.5 2.5 2.39543 2.5 3.5C2.5 4.60457 3.39543 5.5 4.5 5.5Z" stroke="#006699" stroke-linecap="round" stroke-linejoin="round"/>
<path d="M11.5 10.5V9.5C11.4997 9.05687 11.3522 8.62639 11.0807 8.27616C10.8092 7.92593 10.4291 7.67579 10 7.565" stroke="#006699" stroke-linecap="round" stroke-linejoin="round"/>
<path d="M8 1.565C8.43021 1.67515 8.81152 1.92535 9.08382 2.27616C9.35612 2.62696 9.50392 3.05842 9.50392 3.5025C9.50392 3.94659 9.35612 4.37804 9.08382 4.72885C8.81152 5.07965 8.43021 5.32985 8 5.44" stroke="#006699" stroke-linecap="round" stroke-linejoin="round"/>
</svg>
