<svg width="66" height="14" viewBox="0 0 66 14" fill="none" xmlns="http://www.w3.org/2000/svg">
<path d="M2 5.5H10" stroke="#006699" stroke-linecap="round" stroke-linejoin="round"/>
<path d="M2 8.5H10" stroke="#006699" stroke-linecap="round" stroke-linejoin="round"/>
<path d="M5 2.5L4 11.5" stroke="#006699" stroke-linecap="round" stroke-linejoin="round"/>
<path d="M8 2.5L7 11.5" stroke="#006699" stroke-linecap="round" stroke-linejoin="round"/>
<path d="M19.4512 11.1172C18.5918 11.1172 17.8926 10.8359 17.3535 10.2734C16.8145 9.70703 16.5449 8.95117 16.5449 8.00586V7.80664C16.5449 7.17773 16.6641 6.61719 16.9023 6.125C17.1445 5.62891 17.4805 5.24219 17.9102 4.96484C18.3438 4.68359 18.8125 4.54297 19.3164 4.54297C20.1406 4.54297 20.7812 4.81445 21.2383 5.35742C21.6953 5.90039 21.9238 6.67773 21.9238 7.68945V8.14062H17.6289C17.6445 8.76562 17.8262 9.27148 18.1738 9.6582C18.5254 10.041 18.9707 10.2324 19.5098 10.2324C19.8926 10.2324 20.2168 10.1543 20.4824 9.99805C20.748 9.8418 20.9805 9.63477 21.1797 9.37695L21.8418 9.89258C21.3105 10.709 20.5137 11.1172 19.4512 11.1172ZM19.3164 5.43359C18.8789 5.43359 18.5117 5.59375 18.2148 5.91406C17.918 6.23047 17.7344 6.67578 17.6641 7.25H20.8398V7.16797C20.8086 6.61719 20.6602 6.19141 20.3945 5.89062C20.1289 5.58594 19.7695 5.43359 19.3164 5.43359ZM25.7266 10.2324C26.1133 10.2324 26.4512 10.1152 26.7402 9.88086C27.0293 9.64648 27.1895 9.35352 27.2207 9.00195H28.2461C28.2266 9.36523 28.1016 9.71094 27.8711 10.0391C27.6406 10.3672 27.332 10.6289 26.9453 10.8242C26.5625 11.0195 26.1562 11.1172 25.7266 11.1172C24.8633 11.1172 24.1758 10.8301 23.6641 10.2559C23.1562 9.67773 22.9023 8.88867 22.9023 7.88867V7.70703C22.9023 7.08984 23.0156 6.54102 23.2422 6.06055C23.4688 5.58008 23.793 5.20703 24.2148 4.94141C24.6406 4.67578 25.1426 4.54297 25.7207 4.54297C26.4316 4.54297 27.0215 4.75586 27.4902 5.18164C27.9629 5.60742 28.2148 6.16016 28.2461 6.83984H27.2207C27.1895 6.42969 27.0332 6.09375 26.752 5.83203C26.4746 5.56641 26.1309 5.43359 25.7207 5.43359C25.1699 5.43359 24.7422 5.63281 24.4375 6.03125C24.1367 6.42578 23.9863 6.99805 23.9863 7.74805V7.95312C23.9863 8.68359 24.1367 9.24609 24.4375 9.64062C24.7383 10.0352 25.168 10.2324 25.7266 10.2324ZM29.1777 7.77148C29.1777 7.15039 29.2988 6.5918 29.541 6.0957C29.7871 5.59961 30.127 5.2168 30.5605 4.94727C30.998 4.67773 31.4961 4.54297 32.0547 4.54297C32.918 4.54297 33.6152 4.8418 34.1465 5.43945C34.6816 6.03711 34.9492 6.83203 34.9492 7.82422V7.90039C34.9492 8.51758 34.8301 9.07227 34.5918 9.56445C34.3574 10.0527 34.0195 10.4336 33.5781 10.707C33.1406 10.9805 32.6367 11.1172 32.0664 11.1172C31.207 11.1172 30.5098 10.8184 29.9746 10.2207C29.4434 9.62305 29.1777 8.83203 29.1777 7.84766V7.77148ZM30.2676 7.90039C30.2676 8.60352 30.4297 9.16797 30.7539 9.59375C31.082 10.0195 31.5195 10.2324 32.0664 10.2324C32.6172 10.2324 33.0547 10.0176 33.3789 9.58789C33.7031 9.1543 33.8652 8.54883 33.8652 7.77148C33.8652 7.07617 33.6992 6.51367 33.3672 6.08398C33.0391 5.65039 32.6016 5.43359 32.0547 5.43359C31.5195 5.43359 31.0879 5.64648 30.7598 6.07227C30.4316 6.49805 30.2676 7.10742 30.2676 7.90039ZM37.334 4.66016L37.3691 5.45703C37.8535 4.84766 38.4863 4.54297 39.2676 4.54297C40.6074 4.54297 41.2832 5.29883 41.2949 6.81055V11H40.2109V6.80469C40.207 6.34766 40.1016 6.00977 39.8945 5.79102C39.6914 5.57227 39.373 5.46289 38.9395 5.46289C38.5879 5.46289 38.2793 5.55664 38.0137 5.74414C37.748 5.93164 37.541 6.17773 37.3926 6.48242V11H36.3086V4.66016H37.334ZM42.6426 7.77148C42.6426 7.15039 42.7637 6.5918 43.0059 6.0957C43.252 5.59961 43.5918 5.2168 44.0254 4.94727C44.4629 4.67773 44.9609 4.54297 45.5195 4.54297C46.3828 4.54297 47.0801 4.8418 47.6113 5.43945C48.1465 6.03711 48.4141 6.83203 48.4141 7.82422V7.90039C48.4141 8.51758 48.2949 9.07227 48.0566 9.56445C47.8223 10.0527 47.4844 10.4336 47.043 10.707C46.6055 10.9805 46.1016 11.1172 45.5312 11.1172C44.6719 11.1172 43.9746 10.8184 43.4395 10.2207C42.9082 9.62305 42.6426 8.83203 42.6426 7.84766V7.77148ZM43.7324 7.90039C43.7324 8.60352 43.8945 9.16797 44.2188 9.59375C44.5469 10.0195 44.9844 10.2324 45.5312 10.2324C46.082 10.2324 46.5195 10.0176 46.8438 9.58789C47.168 9.1543 47.3301 8.54883 47.3301 7.77148C47.3301 7.07617 47.1641 6.51367 46.832 6.08398C46.5039 5.65039 46.0664 5.43359 45.5195 5.43359C44.9844 5.43359 44.5527 5.64648 44.2246 6.07227C43.8965 6.49805 43.7324 7.10742 43.7324 7.90039ZM50.793 4.66016L50.8223 5.36328C51.2871 4.81641 51.9141 4.54297 52.7031 4.54297C53.5898 4.54297 54.1934 4.88281 54.5137 5.5625C54.7246 5.25781 54.998 5.01172 55.334 4.82422C55.6738 4.63672 56.0742 4.54297 56.5352 4.54297C57.9258 4.54297 58.6328 5.2793 58.6562 6.75195V11H57.5723V6.81641C57.5723 6.36328 57.4688 6.02539 57.2617 5.80273C57.0547 5.57617 56.707 5.46289 56.2188 5.46289C55.8164 5.46289 55.4824 5.58398 55.2168 5.82617C54.9512 6.06445 54.7969 6.38672 54.7539 6.79297V11H53.6641V6.8457C53.6641 5.92383 53.2129 5.46289 52.3105 5.46289C51.5996 5.46289 51.1133 5.76562 50.8516 6.37109V11H49.7676V4.66016H50.793ZM62.3711 9.41211L63.8477 4.66016H65.0078L62.459 11.9785C62.0645 13.0332 61.4375 13.5605 60.5781 13.5605L60.373 13.543L59.9688 13.4668V12.5879L60.2617 12.6113C60.6289 12.6113 60.9141 12.5371 61.1172 12.3887C61.3242 12.2402 61.4941 11.9688 61.627 11.5742L61.8672 10.9297L59.6055 4.66016H60.7891L62.3711 9.41211Z" fill="#006699"/>
</svg>
