<svg width="63" height="14" viewBox="0 0 63 14" fill="none" xmlns="http://www.w3.org/2000/svg">
<path d="M2 5.5H10" stroke="#006699" stroke-linecap="round" stroke-linejoin="round"/>
<path d="M2 8.5H10" stroke="#006699" stroke-linecap="round" stroke-linejoin="round"/>
<path d="M5 2.5L4 11.5" stroke="#006699" stroke-linecap="round" stroke-linejoin="round"/>
<path d="M8 2.5L7 11.5" stroke="#006699" stroke-linecap="round" stroke-linejoin="round"/>
<path d="M18.3535 11V5.49805H17.3516V4.66016H18.3535V4.00977C18.3535 3.33008 18.5352 2.80469 18.8984 2.43359C19.2617 2.0625 19.7754 1.87695 20.4395 1.87695C20.6895 1.87695 20.9375 1.91016 21.1836 1.97656L21.125 2.85547C20.9414 2.82031 20.7461 2.80273 20.5391 2.80273C20.1875 2.80273 19.916 2.90625 19.7246 3.11328C19.5332 3.31641 19.4375 3.60938 19.4375 3.99219V4.66016H20.791V5.49805H19.4375V11H18.3535ZM25.9062 10.373C25.4844 10.8691 24.8652 11.1172 24.0488 11.1172C23.373 11.1172 22.8574 10.9219 22.502 10.5312C22.1504 10.1367 21.9727 9.55469 21.9688 8.78516V4.66016H23.0527V8.75586C23.0527 9.7168 23.4434 10.1973 24.2246 10.1973C25.0527 10.1973 25.6035 9.88867 25.877 9.27148V4.66016H26.9609V11H25.9297L25.9062 10.373ZM30.084 3.125V4.66016H31.2676V5.49805H30.084V9.42969C30.084 9.68359 30.1367 9.875 30.2422 10.0039C30.3477 10.1289 30.5273 10.1914 30.7812 10.1914C30.9062 10.1914 31.0781 10.168 31.2969 10.1211V11C31.0117 11.0781 30.7344 11.1172 30.4648 11.1172C29.9805 11.1172 29.6152 10.9707 29.3691 10.6777C29.123 10.3848 29 9.96875 29 9.42969V5.49805H27.8457V4.66016H29V3.125H30.084ZM36.4531 10.373C36.0312 10.8691 35.4121 11.1172 34.5957 11.1172C33.9199 11.1172 33.4043 10.9219 33.0488 10.5312C32.6973 10.1367 32.5195 9.55469 32.5156 8.78516V4.66016H33.5996V8.75586C33.5996 9.7168 33.9902 10.1973 34.7715 10.1973C35.5996 10.1973 36.1504 9.88867 36.4238 9.27148V4.66016H37.5078V11H36.4766L36.4531 10.373ZM42.2246 5.63281C42.0605 5.60547 41.8828 5.5918 41.6914 5.5918C40.9805 5.5918 40.498 5.89453 40.2441 6.5V11H39.1602V4.66016H40.2148L40.2324 5.39258C40.5879 4.82617 41.0918 4.54297 41.7441 4.54297C41.9551 4.54297 42.1152 4.57031 42.2246 4.625V5.63281ZM44.4043 11H43.3203V4.66016H44.4043V11ZM43.2324 2.97852C43.2324 2.80273 43.2852 2.6543 43.3906 2.5332C43.5 2.41211 43.6602 2.35156 43.8711 2.35156C44.082 2.35156 44.2422 2.41211 44.3516 2.5332C44.4609 2.6543 44.5156 2.80273 44.5156 2.97852C44.5156 3.1543 44.4609 3.30078 44.3516 3.41797C44.2422 3.53516 44.082 3.59375 43.8711 3.59375C43.6602 3.59375 43.5 3.53516 43.3906 3.41797C43.2852 3.30078 43.2324 3.1543 43.2324 2.97852ZM49.8359 9.31836C49.8359 9.02539 49.7246 8.79883 49.502 8.63867C49.2832 8.47461 48.8984 8.33398 48.3477 8.2168C47.8008 8.09961 47.3652 7.95898 47.041 7.79492C46.7207 7.63086 46.4824 7.43555 46.3262 7.20898C46.1738 6.98242 46.0977 6.71289 46.0977 6.40039C46.0977 5.88086 46.3164 5.44141 46.7539 5.08203C47.1953 4.72266 47.7578 4.54297 48.4414 4.54297C49.1602 4.54297 49.7422 4.72852 50.1875 5.09961C50.6367 5.4707 50.8613 5.94531 50.8613 6.52344H49.7715C49.7715 6.22656 49.6445 5.9707 49.3906 5.75586C49.1406 5.54102 48.8242 5.43359 48.4414 5.43359C48.0469 5.43359 47.7383 5.51953 47.5156 5.69141C47.293 5.86328 47.1816 6.08789 47.1816 6.36523C47.1816 6.62695 47.2852 6.82422 47.4922 6.95703C47.6992 7.08984 48.0723 7.2168 48.6113 7.33789C49.1543 7.45898 49.5938 7.60352 49.9297 7.77148C50.2656 7.93945 50.5137 8.14258 50.6738 8.38086C50.8379 8.61523 50.9199 8.90234 50.9199 9.24219C50.9199 9.80859 50.6934 10.2637 50.2402 10.6074C49.7871 10.9473 49.1992 11.1172 48.4766 11.1172C47.9688 11.1172 47.5195 11.0273 47.1289 10.8477C46.7383 10.668 46.4316 10.418 46.209 10.0977C45.9902 9.77344 45.8809 9.42383 45.8809 9.04883H46.9648C46.9844 9.41211 47.1289 9.70117 47.3984 9.91602C47.6719 10.127 48.0312 10.2324 48.4766 10.2324C48.8867 10.2324 49.2148 10.1504 49.4609 9.98633C49.7109 9.81836 49.8359 9.5957 49.8359 9.31836ZM53.3516 4.66016L53.3809 5.36328C53.8457 4.81641 54.4727 4.54297 55.2617 4.54297C56.1484 4.54297 56.752 4.88281 57.0723 5.5625C57.2832 5.25781 57.5566 5.01172 57.8926 4.82422C58.2324 4.63672 58.6328 4.54297 59.0938 4.54297C60.4844 4.54297 61.1914 5.2793 61.2148 6.75195V11H60.1309V6.81641C60.1309 6.36328 60.0273 6.02539 59.8203 5.80273C59.6133 5.57617 59.2656 5.46289 58.7773 5.46289C58.375 5.46289 58.041 5.58398 57.7754 5.82617C57.5098 6.06445 57.3555 6.38672 57.3125 6.79297V11H56.2227V6.8457C56.2227 5.92383 55.7715 5.46289 54.8691 5.46289C54.1582 5.46289 53.6719 5.76562 53.4102 6.37109V11H52.3262V4.66016H53.3516Z" fill="#006699"/>
</svg>
