<svg width="96" height="14" viewBox="0 0 96 14" fill="none" xmlns="http://www.w3.org/2000/svg">
<path d="M26.9961 2.46875V8.26953C26.9922 9.07422 26.7383 9.73242 26.2344 10.2441C25.7344 10.7559 25.0547 11.043 24.1953 11.1055L23.8965 11.1172C22.9629 11.1172 22.2188 10.8652 21.6641 10.3613C21.1094 9.85742 20.8281 9.16406 20.8203 8.28125V2.46875H21.9336V8.24609C21.9336 8.86328 22.1035 9.34375 22.4434 9.6875C22.7832 10.0273 23.2676 10.1973 23.8965 10.1973C24.5332 10.1973 25.0195 10.0273 25.3555 9.6875C25.6953 9.34766 25.8652 8.86914 25.8652 8.25195V2.46875H26.9961ZM32.293 9.31836C32.293 9.02539 32.1816 8.79883 31.959 8.63867C31.7402 8.47461 31.3555 8.33398 30.8047 8.2168C30.2578 8.09961 29.8223 7.95898 29.498 7.79492C29.1777 7.63086 28.9395 7.43555 28.7832 7.20898C28.6309 6.98242 28.5547 6.71289 28.5547 6.40039C28.5547 5.88086 28.7734 5.44141 29.2109 5.08203C29.6523 4.72266 30.2148 4.54297 30.8984 4.54297C31.6172 4.54297 32.1992 4.72852 32.6445 5.09961C33.0938 5.4707 33.3184 5.94531 33.3184 6.52344H32.2285C32.2285 6.22656 32.1016 5.9707 31.8477 5.75586C31.5977 5.54102 31.2812 5.43359 30.8984 5.43359C30.5039 5.43359 30.1953 5.51953 29.9727 5.69141C29.75 5.86328 29.6387 6.08789 29.6387 6.36523C29.6387 6.62695 29.7422 6.82422 29.9492 6.95703C30.1562 7.08984 30.5293 7.2168 31.0684 7.33789C31.6113 7.45898 32.0508 7.60352 32.3867 7.77148C32.7227 7.93945 32.9707 8.14258 33.1309 8.38086C33.2949 8.61523 33.377 8.90234 33.377 9.24219C33.377 9.80859 33.1504 10.2637 32.6973 10.6074C32.2441 10.9473 31.6562 11.1172 30.9336 11.1172C30.4258 11.1172 29.9766 11.0273 29.5859 10.8477C29.1953 10.668 28.8887 10.418 28.666 10.0977C28.4473 9.77344 28.3379 9.42383 28.3379 9.04883H29.4219C29.4414 9.41211 29.5859 9.70117 29.8555 9.91602C30.1289 10.127 30.4883 10.2324 30.9336 10.2324C31.3438 10.2324 31.6719 10.1504 31.918 9.98633C32.168 9.81836 32.293 9.5957 32.293 9.31836ZM37.4199 11.1172C36.5605 11.1172 35.8613 10.8359 35.3223 10.2734C34.7832 9.70703 34.5137 8.95117 34.5137 8.00586V7.80664C34.5137 7.17773 34.6328 6.61719 34.8711 6.125C35.1133 5.62891 35.4492 5.24219 35.8789 4.96484C36.3125 4.68359 36.7812 4.54297 37.2852 4.54297C38.1094 4.54297 38.75 4.81445 39.207 5.35742C39.6641 5.90039 39.8926 6.67773 39.8926 7.68945V8.14062H35.5977C35.6133 8.76562 35.7949 9.27148 36.1426 9.6582C36.4941 10.041 36.9395 10.2324 37.4785 10.2324C37.8613 10.2324 38.1855 10.1543 38.4512 9.99805C38.7168 9.8418 38.9492 9.63477 39.1484 9.37695L39.8105 9.89258C39.2793 10.709 38.4824 11.1172 37.4199 11.1172ZM37.2852 5.43359C36.8477 5.43359 36.4805 5.59375 36.1836 5.91406C35.8867 6.23047 35.7031 6.67578 35.6328 7.25H38.8086V7.16797C38.7773 6.61719 38.6289 6.19141 38.3633 5.89062C38.0977 5.58594 37.7383 5.43359 37.2852 5.43359ZM44.2168 5.63281C44.0527 5.60547 43.875 5.5918 43.6836 5.5918C42.9727 5.5918 42.4902 5.89453 42.2363 6.5V11H41.1523V4.66016H42.207L42.2246 5.39258C42.5801 4.82617 43.084 4.54297 43.7363 4.54297C43.9473 4.54297 44.1074 4.57031 44.2168 4.625V5.63281ZM49.5723 11H48.4473V2.46875H49.5723V11ZM52.4902 4.66016L52.5254 5.45703C53.0098 4.84766 53.6426 4.54297 54.4238 4.54297C55.7637 4.54297 56.4395 5.29883 56.4512 6.81055V11H55.3672V6.80469C55.3633 6.34766 55.2578 6.00977 55.0508 5.79102C54.8477 5.57227 54.5293 5.46289 54.0957 5.46289C53.7441 5.46289 53.4355 5.55664 53.1699 5.74414C52.9043 5.93164 52.6973 6.17773 52.5488 6.48242V11H51.4648V4.66016H52.4902ZM59.5566 3.125V4.66016H60.7402V5.49805H59.5566V9.42969C59.5566 9.68359 59.6094 9.875 59.7148 10.0039C59.8203 10.1289 60 10.1914 60.2539 10.1914C60.3789 10.1914 60.5508 10.168 60.7695 10.1211V11C60.4844 11.0781 60.207 11.1172 59.9375 11.1172C59.4531 11.1172 59.0879 10.9707 58.8418 10.6777C58.5957 10.3848 58.4727 9.96875 58.4727 9.42969V5.49805H57.3184V4.66016H58.4727V3.125H59.5566ZM64.6426 11.1172C63.7832 11.1172 63.084 10.8359 62.5449 10.2734C62.0059 9.70703 61.7363 8.95117 61.7363 8.00586V7.80664C61.7363 7.17773 61.8555 6.61719 62.0938 6.125C62.3359 5.62891 62.6719 5.24219 63.1016 4.96484C63.5352 4.68359 64.0039 4.54297 64.5078 4.54297C65.332 4.54297 65.9727 4.81445 66.4297 5.35742C66.8867 5.90039 67.1152 6.67773 67.1152 7.68945V8.14062H62.8203C62.8359 8.76562 63.0176 9.27148 63.3652 9.6582C63.7168 10.041 64.1621 10.2324 64.7012 10.2324C65.084 10.2324 65.4082 10.1543 65.6738 9.99805C65.9395 9.8418 66.1719 9.63477 66.3711 9.37695L67.0332 9.89258C66.502 10.709 65.7051 11.1172 64.6426 11.1172ZM64.5078 5.43359C64.0703 5.43359 63.7031 5.59375 63.4062 5.91406C63.1094 6.23047 62.9258 6.67578 62.8555 7.25H66.0312V7.16797C66 6.61719 65.8516 6.19141 65.5859 5.89062C65.3203 5.58594 64.9609 5.43359 64.5078 5.43359ZM71.4395 5.63281C71.2754 5.60547 71.0977 5.5918 70.9062 5.5918C70.1953 5.5918 69.7129 5.89453 69.459 6.5V11H68.375V4.66016H69.4297L69.4473 5.39258C69.8027 4.82617 70.3066 4.54297 70.959 4.54297C71.1699 4.54297 71.3301 4.57031 71.4395 4.625V5.63281ZM73.0684 11V5.49805H72.0664V4.66016H73.0684V4.00977C73.0684 3.33008 73.25 2.80469 73.6133 2.43359C73.9766 2.0625 74.4902 1.87695 75.1543 1.87695C75.4043 1.87695 75.6523 1.91016 75.8984 1.97656L75.8398 2.85547C75.6562 2.82031 75.4609 2.80273 75.2539 2.80273C74.9023 2.80273 74.6309 2.90625 74.4395 3.11328C74.248 3.31641 74.1523 3.60938 74.1523 3.99219V4.66016H75.5059V5.49805H74.1523V11H73.0684ZM80.6211 11C80.5586 10.875 80.5078 10.6523 80.4688 10.332C79.9648 10.8555 79.3633 11.1172 78.6641 11.1172C78.0391 11.1172 77.5254 10.9414 77.123 10.5898C76.7246 10.2344 76.5254 9.78516 76.5254 9.24219C76.5254 8.58203 76.7754 8.07031 77.2754 7.70703C77.7793 7.33984 78.4863 7.15625 79.3965 7.15625H80.4512V6.6582C80.4512 6.2793 80.3379 5.97852 80.1113 5.75586C79.8848 5.5293 79.5508 5.41602 79.1094 5.41602C78.7227 5.41602 78.3984 5.51367 78.1367 5.70898C77.875 5.9043 77.7441 6.14062 77.7441 6.41797H76.6543C76.6543 6.10156 76.7656 5.79688 76.9883 5.50391C77.2148 5.20703 77.5195 4.97266 77.9023 4.80078C78.2891 4.62891 78.7129 4.54297 79.1738 4.54297C79.9043 4.54297 80.4766 4.72656 80.8906 5.09375C81.3047 5.45703 81.5195 5.95898 81.5352 6.59961V9.51758C81.5352 10.0996 81.6094 10.5625 81.7578 10.9062V11H80.6211ZM78.8223 10.1738C79.1621 10.1738 79.4844 10.0859 79.7891 9.91016C80.0938 9.73438 80.3145 9.50586 80.4512 9.22461V7.92383H79.6016C78.2734 7.92383 77.6094 8.3125 77.6094 9.08984C77.6094 9.42969 77.7227 9.69531 77.9492 9.88672C78.1758 10.0781 78.4668 10.1738 78.8223 10.1738ZM85.7773 10.2324C86.1641 10.2324 86.502 10.1152 86.791 9.88086C87.0801 9.64648 87.2402 9.35352 87.2715 9.00195H88.2969C88.2773 9.36523 88.1523 9.71094 87.9219 10.0391C87.6914 10.3672 87.3828 10.6289 86.9961 10.8242C86.6133 11.0195 86.207 11.1172 85.7773 11.1172C84.9141 11.1172 84.2266 10.8301 83.7148 10.2559C83.207 9.67773 82.9531 8.88867 82.9531 7.88867V7.70703C82.9531 7.08984 83.0664 6.54102 83.293 6.06055C83.5195 5.58008 83.8438 5.20703 84.2656 4.94141C84.6914 4.67578 85.1934 4.54297 85.7715 4.54297C86.4824 4.54297 87.0723 4.75586 87.541 5.18164C88.0137 5.60742 88.2656 6.16016 88.2969 6.83984H87.2715C87.2402 6.42969 87.084 6.09375 86.8027 5.83203C86.5254 5.56641 86.1816 5.43359 85.7715 5.43359C85.2207 5.43359 84.793 5.63281 84.4883 6.03125C84.1875 6.42578 84.0371 6.99805 84.0371 7.74805V7.95312C84.0371 8.68359 84.1875 9.24609 84.4883 9.64062C84.7891 10.0352 85.2188 10.2324 85.7773 10.2324ZM92.1465 11.1172C91.2871 11.1172 90.5879 10.8359 90.0488 10.2734C89.5098 9.70703 89.2402 8.95117 89.2402 8.00586V7.80664C89.2402 7.17773 89.3594 6.61719 89.5977 6.125C89.8398 5.62891 90.1758 5.24219 90.6055 4.96484C91.0391 4.68359 91.5078 4.54297 92.0117 4.54297C92.8359 4.54297 93.4766 4.81445 93.9336 5.35742C94.3906 5.90039 94.6191 6.67773 94.6191 7.68945V8.14062H90.3242C90.3398 8.76562 90.5215 9.27148 90.8691 9.6582C91.2207 10.041 91.666 10.2324 92.2051 10.2324C92.5879 10.2324 92.9121 10.1543 93.1777 9.99805C93.4434 9.8418 93.6758 9.63477 93.875 9.37695L94.5371 9.89258C94.0059 10.709 93.209 11.1172 92.1465 11.1172ZM92.0117 5.43359C91.5742 5.43359 91.207 5.59375 90.9102 5.91406C90.6133 6.23047 90.4297 6.67578 90.3594 7.25H93.5352V7.16797C93.5039 6.61719 93.3555 6.19141 93.0898 5.89062C92.8242 5.58594 92.4648 5.43359 92.0117 5.43359Z" fill="#006699"/>
<path d="M8.5 10.5V9.5C8.5 8.96957 8.28929 8.46086 7.91421 8.08579C7.53914 7.71071 7.03043 7.5 6.5 7.5H2.5C1.96957 7.5 1.46086 7.71071 1.08579 8.08579C0.710714 8.46086 0.5 8.96957 0.5 9.5V10.5" stroke="#006699" stroke-linecap="round" stroke-linejoin="round"/>
<path d="M4.5 5.5C5.60457 5.5 6.5 4.60457 6.5 3.5C6.5 2.39543 5.60457 1.5 4.5 1.5C3.39543 1.5 2.5 2.39543 2.5 3.5C2.5 4.60457 3.39543 5.5 4.5 5.5Z" stroke="#006699" stroke-linecap="round" stroke-linejoin="round"/>
<path d="M11.5 10.5V9.5C11.4997 9.05687 11.3522 8.62639 11.0807 8.27616C10.8092 7.92593 10.4291 7.67579 10 7.565" stroke="#006699" stroke-linecap="round" stroke-linejoin="round"/>
<path d="M8 1.565C8.43021 1.67515 8.81152 1.92535 9.08382 2.27616C9.35612 2.62696 9.50392 3.05842 9.50392 3.5025C9.50392 3.94659 9.35612 4.37804 9.08382 4.72885C8.81152 5.07965 8.43021 5.32985 8 5.44" stroke="#006699" stroke-linecap="round" stroke-linejoin="round"/>
</svg>
