<svg width="64" height="20" viewBox="0 0 64 20" fill="none" xmlns="http://www.w3.org/2000/svg">
<path d="M19.1667 5.83333L13.3333 9.99999L19.1667 14.1667V5.83333Z" stroke="#388BF2" stroke-width="1.5" stroke-linecap="round" stroke-linejoin="round"/>
<path d="M11.6667 4.16667H2.5C1.57953 4.16667 0.833336 4.91286 0.833336 5.83334V14.1667C0.833336 15.0871 1.57953 15.8333 2.5 15.8333H11.6667C12.5871 15.8333 13.3333 15.0871 13.3333 14.1667V5.83334C13.3333 4.91286 12.5871 4.16667 11.6667 4.16667Z" stroke="#388BF2" stroke-width="1.5" stroke-linecap="round" stroke-linejoin="round"/>
<path d="M32.3682 13.4893L35.3008 5.04688H36.7295L33.0449 15H32.0264L32.3682 13.4893ZM29.627 5.04688L32.5322 13.4893L32.8945 15H31.876L28.1982 5.04688H29.627ZM39.252 7.60352V15H37.9805V7.60352H39.252ZM37.8848 5.6416C37.8848 5.43652 37.9463 5.26335 38.0693 5.12207C38.1969 4.98079 38.3838 4.91016 38.6299 4.91016C38.8714 4.91016 39.056 4.98079 39.1836 5.12207C39.3158 5.26335 39.3818 5.43652 39.3818 5.6416C39.3818 5.83757 39.3158 6.00618 39.1836 6.14746C39.056 6.28418 38.8714 6.35254 38.6299 6.35254C38.3838 6.35254 38.1969 6.28418 38.0693 6.14746C37.9463 6.00618 37.8848 5.83757 37.8848 5.6416ZM45.9443 13.5645V4.5H47.2158V15H46.0537L45.9443 13.5645ZM40.9678 11.3838V11.2402C40.9678 10.6751 41.0361 10.1624 41.1729 9.70215C41.3141 9.2373 41.5124 8.83854 41.7676 8.50586C42.0273 8.17318 42.335 7.91797 42.6904 7.74023C43.0505 7.55794 43.4515 7.4668 43.8936 7.4668C44.3584 7.4668 44.764 7.54883 45.1104 7.71289C45.4613 7.8724 45.7575 8.1071 45.999 8.41699C46.2451 8.72233 46.4388 9.09147 46.5801 9.52441C46.7214 9.95736 46.8193 10.4473 46.874 10.9941V11.623C46.8239 12.1654 46.7259 12.653 46.5801 13.0859C46.4388 13.5189 46.2451 13.888 45.999 14.1934C45.7575 14.4987 45.4613 14.7334 45.1104 14.8975C44.7594 15.057 44.3493 15.1367 43.8799 15.1367C43.4469 15.1367 43.0505 15.0433 42.6904 14.8564C42.335 14.6696 42.0273 14.4076 41.7676 14.0703C41.5124 13.7331 41.3141 13.3366 41.1729 12.8809C41.0361 12.4206 40.9678 11.9215 40.9678 11.3838ZM42.2393 11.2402V11.3838C42.2393 11.7529 42.2757 12.0993 42.3486 12.4229C42.4261 12.7464 42.5446 13.0312 42.7041 13.2773C42.8636 13.5234 43.0664 13.7171 43.3125 13.8584C43.5586 13.9951 43.8525 14.0635 44.1943 14.0635C44.6136 14.0635 44.9577 13.9746 45.2266 13.7969C45.5 13.6191 45.7188 13.3844 45.8828 13.0928C46.0469 12.8011 46.1745 12.4844 46.2656 12.1426V10.4951C46.2109 10.2445 46.1312 10.0029 46.0264 9.77051C45.9261 9.53353 45.7939 9.32389 45.6299 9.1416C45.4704 8.95475 45.2721 8.80664 45.0352 8.69727C44.8027 8.58789 44.527 8.5332 44.208 8.5332C43.8617 8.5332 43.5632 8.60612 43.3125 8.75195C43.0664 8.89323 42.8636 9.08919 42.7041 9.33984C42.5446 9.58594 42.4261 9.87305 42.3486 10.2012C42.2757 10.5247 42.2393 10.8711 42.2393 11.2402ZM52.2539 15.1367C51.7389 15.1367 51.2718 15.0501 50.8525 14.877C50.4378 14.6992 50.0801 14.4508 49.7793 14.1318C49.4831 13.8128 49.2552 13.4346 49.0957 12.9971C48.9362 12.5596 48.8564 12.0811 48.8564 11.5615V11.2744C48.8564 10.6729 48.9453 10.1374 49.123 9.66797C49.3008 9.19401 49.5423 8.79297 49.8477 8.46484C50.153 8.13672 50.4993 7.88835 50.8867 7.71973C51.2741 7.55111 51.6751 7.4668 52.0898 7.4668C52.6185 7.4668 53.0742 7.55794 53.457 7.74023C53.8444 7.92253 54.1611 8.17773 54.4072 8.50586C54.6533 8.82943 54.8356 9.21224 54.9541 9.6543C55.0726 10.0918 55.1318 10.5703 55.1318 11.0898V11.6572H49.6084V10.625H53.8672V10.5293C53.849 10.2012 53.7806 9.88216 53.6621 9.57227C53.5482 9.26237 53.3659 9.00716 53.1152 8.80664C52.8646 8.60612 52.5228 8.50586 52.0898 8.50586C51.8027 8.50586 51.5384 8.56738 51.2969 8.69043C51.0553 8.80892 50.848 8.98665 50.6748 9.22363C50.5016 9.46061 50.3672 9.75 50.2715 10.0918C50.1758 10.4336 50.1279 10.8278 50.1279 11.2744V11.5615C50.1279 11.9124 50.1758 12.2428 50.2715 12.5527C50.3717 12.8581 50.5153 13.127 50.7021 13.3594C50.8936 13.5918 51.1237 13.7741 51.3926 13.9062C51.666 14.0384 51.9759 14.1045 52.3223 14.1045C52.7689 14.1045 53.1471 14.0133 53.457 13.8311C53.7669 13.6488 54.0381 13.4049 54.2705 13.0996L55.0361 13.708C54.8766 13.9495 54.6738 14.1797 54.4277 14.3984C54.1816 14.6172 53.8786 14.7949 53.5186 14.9316C53.1631 15.0684 52.7415 15.1367 52.2539 15.1367ZM56.2734 11.3838V11.2266C56.2734 10.6934 56.3509 10.1989 56.5059 9.74316C56.6608 9.28288 56.8841 8.88411 57.1758 8.54688C57.4674 8.20508 57.8206 7.94076 58.2354 7.75391C58.6501 7.5625 59.1149 7.4668 59.6299 7.4668C60.1494 7.4668 60.6165 7.5625 61.0312 7.75391C61.4505 7.94076 61.806 8.20508 62.0977 8.54688C62.3939 8.88411 62.6195 9.28288 62.7744 9.74316C62.9294 10.1989 63.0068 10.6934 63.0068 11.2266V11.3838C63.0068 11.917 62.9294 12.4115 62.7744 12.8672C62.6195 13.3229 62.3939 13.7217 62.0977 14.0635C61.806 14.4007 61.4528 14.665 61.0381 14.8564C60.6279 15.0433 60.1631 15.1367 59.6436 15.1367C59.124 15.1367 58.6569 15.0433 58.2422 14.8564C57.8275 14.665 57.472 14.4007 57.1758 14.0635C56.8841 13.7217 56.6608 13.3229 56.5059 12.8672C56.3509 12.4115 56.2734 11.917 56.2734 11.3838ZM57.5381 11.2266V11.3838C57.5381 11.7529 57.5814 12.1016 57.668 12.4297C57.7546 12.7533 57.8844 13.0404 58.0576 13.291C58.2354 13.5417 58.4564 13.7399 58.7207 13.8857C58.985 14.027 59.2926 14.0977 59.6436 14.0977C59.9899 14.0977 60.293 14.027 60.5527 13.8857C60.8171 13.7399 61.0358 13.5417 61.209 13.291C61.3822 13.0404 61.512 12.7533 61.5986 12.4297C61.6898 12.1016 61.7354 11.7529 61.7354 11.3838V11.2266C61.7354 10.862 61.6898 10.5179 61.5986 10.1943C61.512 9.86621 61.3799 9.57682 61.2021 9.32617C61.029 9.07096 60.8102 8.87044 60.5459 8.72461C60.2861 8.57878 59.9808 8.50586 59.6299 8.50586C59.2835 8.50586 58.9782 8.57878 58.7139 8.72461C58.4541 8.87044 58.2354 9.07096 58.0576 9.32617C57.8844 9.57682 57.7546 9.86621 57.668 10.1943C57.5814 10.5179 57.5381 10.862 57.5381 11.2266Z" fill="#17272F"/>
</svg>
