<svg width="63" height="20" viewBox="0 0 63 20" fill="none" xmlns="http://www.w3.org/2000/svg">
<path d="M15.8333 3.33333H4.16667C3.24619 3.33333 2.5 4.07952 2.5 4.99999V16.6667C2.5 17.5871 3.24619 18.3333 4.16667 18.3333H15.8333C16.7538 18.3333 17.5 17.5871 17.5 16.6667V4.99999C17.5 4.07952 16.7538 3.33333 15.8333 3.33333Z" stroke="#FC8338" stroke-width="1.5" stroke-linecap="round" stroke-linejoin="round"/>
<path d="M13.3333 1.66667V5.00001" stroke="#FC8338" stroke-width="1.5" stroke-linecap="round" stroke-linejoin="round"/>
<path d="M6.66667 1.66667V5.00001" stroke="#FC8338" stroke-width="1.5" stroke-linecap="round" stroke-linejoin="round"/>
<path d="M2.5 8.33333H17.5" stroke="#FC8338" stroke-width="1.5" stroke-linecap="round" stroke-linejoin="round"/>
<path d="M35.4785 13.9268V15H30.208V13.9268H35.4785ZM30.4746 5.04688V15H29.1553V5.04688H30.4746ZM34.7812 9.32617V10.3994H30.208V9.32617H34.7812ZM35.4102 5.04688V6.12695H30.208V5.04688H35.4102ZM38.9922 13.8584L41.0156 7.60352H42.3076L39.6484 15H38.8008L38.9922 13.8584ZM37.3037 7.60352L39.3887 13.8926L39.5322 15H38.6846L36.0049 7.60352H37.3037ZM46.498 15.1367C45.9831 15.1367 45.516 15.0501 45.0967 14.877C44.682 14.6992 44.3242 14.4508 44.0234 14.1318C43.7272 13.8128 43.4993 13.4346 43.3398 12.9971C43.1803 12.5596 43.1006 12.0811 43.1006 11.5615V11.2744C43.1006 10.6729 43.1895 10.1374 43.3672 9.66797C43.5449 9.19401 43.7865 8.79297 44.0918 8.46484C44.3971 8.13672 44.7435 7.88835 45.1309 7.71973C45.5182 7.55111 45.9193 7.4668 46.334 7.4668C46.8626 7.4668 47.3184 7.55794 47.7012 7.74023C48.0885 7.92253 48.4053 8.17773 48.6514 8.50586C48.8975 8.82943 49.0798 9.21224 49.1982 9.6543C49.3167 10.0918 49.376 10.5703 49.376 11.0898V11.6572H43.8525V10.625H48.1113V10.5293C48.0931 10.2012 48.0247 9.88216 47.9062 9.57227C47.7923 9.26237 47.61 9.00716 47.3594 8.80664C47.1087 8.60612 46.7669 8.50586 46.334 8.50586C46.0469 8.50586 45.7826 8.56738 45.541 8.69043C45.2995 8.80892 45.0921 8.98665 44.9189 9.22363C44.7458 9.46061 44.6113 9.75 44.5156 10.0918C44.4199 10.4336 44.3721 10.8278 44.3721 11.2744V11.5615C44.3721 11.9124 44.4199 12.2428 44.5156 12.5527C44.6159 12.8581 44.7594 13.127 44.9463 13.3594C45.1377 13.5918 45.3678 13.7741 45.6367 13.9062C45.9102 14.0384 46.2201 14.1045 46.5664 14.1045C47.013 14.1045 47.3913 14.0133 47.7012 13.8311C48.0111 13.6488 48.2822 13.4049 48.5146 13.0996L49.2803 13.708C49.1208 13.9495 48.918 14.1797 48.6719 14.3984C48.4258 14.6172 48.1227 14.7949 47.7627 14.9316C47.4072 15.0684 46.9857 15.1367 46.498 15.1367ZM52.1172 9.18262V15H50.8525V7.60352H52.0488L52.1172 9.18262ZM51.8164 11.0215L51.29 11.001C51.2946 10.4951 51.3698 10.028 51.5156 9.59961C51.6615 9.16667 51.8665 8.79069 52.1309 8.47168C52.3952 8.15267 52.7096 7.90658 53.0742 7.7334C53.4434 7.55566 53.8512 7.4668 54.2979 7.4668C54.6624 7.4668 54.9906 7.51693 55.2822 7.61719C55.5739 7.71289 55.8223 7.86784 56.0273 8.08203C56.237 8.29622 56.3965 8.57422 56.5059 8.91602C56.6152 9.25326 56.6699 9.66569 56.6699 10.1533V15H55.3984V10.1396C55.3984 9.75228 55.3415 9.44238 55.2275 9.20996C55.1136 8.97298 54.9473 8.80208 54.7285 8.69727C54.5098 8.58789 54.2409 8.5332 53.9219 8.5332C53.6074 8.5332 53.3203 8.59928 53.0605 8.73145C52.8053 8.86361 52.5843 9.0459 52.3975 9.27832C52.2152 9.51074 52.0716 9.77734 51.9668 10.0781C51.8665 10.3743 51.8164 10.6888 51.8164 11.0215ZM61.6875 7.60352V8.57422H57.6885V7.60352H61.6875ZM59.042 5.80566H60.3066V13.168C60.3066 13.4186 60.3454 13.6077 60.4229 13.7354C60.5003 13.863 60.6006 13.9473 60.7236 13.9883C60.8467 14.0293 60.9788 14.0498 61.1201 14.0498C61.2249 14.0498 61.3343 14.0407 61.4482 14.0225C61.5667 13.9997 61.6556 13.9814 61.7148 13.9678L61.7217 15C61.6214 15.0319 61.4893 15.0615 61.3252 15.0889C61.1657 15.1208 60.972 15.1367 60.7441 15.1367C60.4342 15.1367 60.1494 15.0752 59.8896 14.9521C59.6299 14.8291 59.4225 14.624 59.2676 14.3369C59.1172 14.0452 59.042 13.6533 59.042 13.1611V5.80566Z" fill="#17272F"/>
</svg>
