<svg width="65" height="20" viewBox="0 0 65 20" fill="none" xmlns="http://www.w3.org/2000/svg">
<path d="M19.1667 15.8333C19.1667 16.2754 18.9911 16.6993 18.6785 17.0118C18.3659 17.3244 17.942 17.5 17.5 17.5H2.5C2.05797 17.5 1.63405 17.3244 1.32149 17.0118C1.00893 16.6993 0.833332 16.2754 0.833332 15.8333V6.66667C0.833332 6.22464 1.00893 5.80072 1.32149 5.48816C1.63405 5.17559 2.05797 5 2.5 5H5.83333L7.5 2.5H12.5L14.1667 5H17.5C17.942 5 18.3659 5.17559 18.6785 5.48816C18.9911 5.80072 19.1667 6.22464 19.1667 6.66667V15.8333Z" stroke="#31B057" stroke-width="1.5" stroke-linecap="round" stroke-linejoin="round"/>
<path d="M10 14.1667C11.841 14.1667 13.3333 12.6743 13.3333 10.8333C13.3333 8.99238 11.841 7.5 10 7.5C8.15905 7.5 6.66667 8.99238 6.66667 10.8333C6.66667 12.6743 8.15905 14.1667 10 14.1667Z" stroke="#31B057" stroke-width="1.5" stroke-linecap="round" stroke-linejoin="round"/>
<path d="M32.8262 11.0967H30.167V10.0234H32.8262C33.3411 10.0234 33.7581 9.94141 34.0771 9.77734C34.3962 9.61328 34.6286 9.38542 34.7744 9.09375C34.9248 8.80208 35 8.4694 35 8.0957C35 7.75391 34.9248 7.43262 34.7744 7.13184C34.6286 6.83105 34.3962 6.58952 34.0771 6.40723C33.7581 6.22038 33.3411 6.12695 32.8262 6.12695H30.4746V15H29.1553V5.04688H32.8262C33.5781 5.04688 34.2139 5.17676 34.7334 5.43652C35.2529 5.69629 35.6471 6.05632 35.916 6.5166C36.1849 6.97233 36.3193 7.49414 36.3193 8.08203C36.3193 8.72005 36.1849 9.26465 35.916 9.71582C35.6471 10.167 35.2529 10.5111 34.7334 10.748C34.2139 10.9805 33.5781 11.0967 32.8262 11.0967ZM39.0605 4.5V15H37.7959V4.5H39.0605ZM38.7598 11.0215L38.2334 11.001C38.238 10.4951 38.3132 10.028 38.459 9.59961C38.6048 9.16667 38.8099 8.79069 39.0742 8.47168C39.3385 8.15267 39.653 7.90658 40.0176 7.7334C40.3867 7.55566 40.7946 7.4668 41.2412 7.4668C41.6058 7.4668 41.9339 7.51693 42.2256 7.61719C42.5173 7.71289 42.7656 7.86784 42.9707 8.08203C43.1803 8.29622 43.3398 8.57422 43.4492 8.91602C43.5586 9.25326 43.6133 9.66569 43.6133 10.1533V15H42.3418V10.1396C42.3418 9.75228 42.2848 9.44238 42.1709 9.20996C42.057 8.97298 41.8906 8.80208 41.6719 8.69727C41.4531 8.58789 41.1842 8.5332 40.8652 8.5332C40.5508 8.5332 40.2637 8.59928 40.0039 8.73145C39.7487 8.86361 39.5277 9.0459 39.3408 9.27832C39.1585 9.51074 39.015 9.77734 38.9102 10.0781C38.8099 10.3743 38.7598 10.6888 38.7598 11.0215ZM45.1719 11.3838V11.2266C45.1719 10.6934 45.2493 10.1989 45.4043 9.74316C45.5592 9.28288 45.7826 8.88411 46.0742 8.54688C46.3659 8.20508 46.7191 7.94076 47.1338 7.75391C47.5485 7.5625 48.0133 7.4668 48.5283 7.4668C49.0479 7.4668 49.515 7.5625 49.9297 7.75391C50.349 7.94076 50.7044 8.20508 50.9961 8.54688C51.2923 8.88411 51.5179 9.28288 51.6729 9.74316C51.8278 10.1989 51.9053 10.6934 51.9053 11.2266V11.3838C51.9053 11.917 51.8278 12.4115 51.6729 12.8672C51.5179 13.3229 51.2923 13.7217 50.9961 14.0635C50.7044 14.4007 50.3512 14.665 49.9365 14.8564C49.5264 15.0433 49.0615 15.1367 48.542 15.1367C48.0225 15.1367 47.5553 15.0433 47.1406 14.8564C46.7259 14.665 46.3704 14.4007 46.0742 14.0635C45.7826 13.7217 45.5592 13.3229 45.4043 12.8672C45.2493 12.4115 45.1719 11.917 45.1719 11.3838ZM46.4365 11.2266V11.3838C46.4365 11.7529 46.4798 12.1016 46.5664 12.4297C46.653 12.7533 46.7829 13.0404 46.9561 13.291C47.1338 13.5417 47.3548 13.7399 47.6191 13.8857C47.8835 14.027 48.1911 14.0977 48.542 14.0977C48.8883 14.0977 49.1914 14.027 49.4512 13.8857C49.7155 13.7399 49.9342 13.5417 50.1074 13.291C50.2806 13.0404 50.4105 12.7533 50.4971 12.4297C50.5882 12.1016 50.6338 11.7529 50.6338 11.3838V11.2266C50.6338 10.862 50.5882 10.5179 50.4971 10.1943C50.4105 9.86621 50.2783 9.57682 50.1006 9.32617C49.9274 9.07096 49.7087 8.87044 49.4443 8.72461C49.1846 8.57878 48.8792 8.50586 48.5283 8.50586C48.182 8.50586 47.8766 8.57878 47.6123 8.72461C47.3525 8.87044 47.1338 9.07096 46.9561 9.32617C46.7829 9.57682 46.653 9.86621 46.5664 10.1943C46.4798 10.5179 46.4365 10.862 46.4365 11.2266ZM56.5879 7.60352V8.57422H52.5889V7.60352H56.5879ZM53.9424 5.80566H55.207V13.168C55.207 13.4186 55.2458 13.6077 55.3232 13.7354C55.4007 13.863 55.501 13.9473 55.624 13.9883C55.7471 14.0293 55.8792 14.0498 56.0205 14.0498C56.1253 14.0498 56.2347 14.0407 56.3486 14.0225C56.4671 13.9997 56.556 13.9814 56.6152 13.9678L56.6221 15C56.5218 15.0319 56.3896 15.0615 56.2256 15.0889C56.0661 15.1208 55.8724 15.1367 55.6445 15.1367C55.3346 15.1367 55.0498 15.0752 54.79 14.9521C54.5303 14.8291 54.3229 14.624 54.168 14.3369C54.0176 14.0452 53.9424 13.6533 53.9424 13.1611V5.80566ZM57.5996 11.3838V11.2266C57.5996 10.6934 57.6771 10.1989 57.832 9.74316C57.987 9.28288 58.2103 8.88411 58.502 8.54688C58.7936 8.20508 59.1468 7.94076 59.5615 7.75391C59.9762 7.5625 60.4411 7.4668 60.9561 7.4668C61.4756 7.4668 61.9427 7.5625 62.3574 7.75391C62.7767 7.94076 63.1322 8.20508 63.4238 8.54688C63.7201 8.88411 63.9456 9.28288 64.1006 9.74316C64.2555 10.1989 64.333 10.6934 64.333 11.2266V11.3838C64.333 11.917 64.2555 12.4115 64.1006 12.8672C63.9456 13.3229 63.7201 13.7217 63.4238 14.0635C63.1322 14.4007 62.779 14.665 62.3643 14.8564C61.9541 15.0433 61.4893 15.1367 60.9697 15.1367C60.4502 15.1367 59.9831 15.0433 59.5684 14.8564C59.1536 14.665 58.7982 14.4007 58.502 14.0635C58.2103 13.7217 57.987 13.3229 57.832 12.8672C57.6771 12.4115 57.5996 11.917 57.5996 11.3838ZM58.8643 11.2266V11.3838C58.8643 11.7529 58.9076 12.1016 58.9941 12.4297C59.0807 12.7533 59.2106 13.0404 59.3838 13.291C59.5615 13.5417 59.7826 13.7399 60.0469 13.8857C60.3112 14.027 60.6188 14.0977 60.9697 14.0977C61.3161 14.0977 61.6191 14.027 61.8789 13.8857C62.1432 13.7399 62.362 13.5417 62.5352 13.291C62.7083 13.0404 62.8382 12.7533 62.9248 12.4297C63.016 12.1016 63.0615 11.7529 63.0615 11.3838V11.2266C63.0615 10.862 63.016 10.5179 62.9248 10.1943C62.8382 9.86621 62.7061 9.57682 62.5283 9.32617C62.3551 9.07096 62.1364 8.87044 61.8721 8.72461C61.6123 8.57878 61.307 8.50586 60.9561 8.50586C60.6097 8.50586 60.3044 8.57878 60.04 8.72461C59.7803 8.87044 59.5615 9.07096 59.3838 9.32617C59.2106 9.57682 59.0807 9.86621 58.9941 10.1943C58.9076 10.5179 58.8643 10.862 58.8643 11.2266Z" fill="#17272F"/>
</svg>
