<svg width="112" height="20" viewBox="0 0 112 20" fill="none" xmlns="http://www.w3.org/2000/svg">
<path d="M9 4H3.55556C3.143 4 2.74733 4.16389 2.45561 4.45561C2.16389 4.74733 2 5.143 2 5.55556V16.4444C2 16.857 2.16389 17.2527 2.45561 17.5444C2.74733 17.8361 3.143 18 3.55556 18H14.4444C14.857 18 15.2527 17.8361 15.5444 17.5444C15.8361 17.2527 16 16.857 16 16.4444V11" stroke="#E52A34" stroke-width="1.5" stroke-linecap="round" stroke-linejoin="round"/>
<path d="M15.1791 2.48399C15.489 2.1741 15.9093 2 16.3476 2C16.7858 2 17.2061 2.1741 17.516 2.48399C17.8259 2.79388 18 3.21418 18 3.65243C18 4.09068 17.8259 4.51099 17.516 4.82088L10.1159 12.221L7 13L7.77896 9.88414L15.1791 2.48399Z" stroke="#E52A34" stroke-width="1.5" stroke-linecap="round" stroke-linejoin="round"/>
<path d="M31.7734 11.9922L33.749 5.04688H34.7061L34.1523 7.74707L32.0264 15H31.0762L31.7734 11.9922ZM29.7295 5.04688L31.3018 11.8555L31.7734 15H30.8301L28.417 5.04688H29.7295ZM37.2627 11.8486L38.8008 5.04688H40.1201L37.7139 15H36.7705L37.2627 11.8486ZM34.8496 5.04688L36.7705 11.9922L37.4678 15H36.5176L34.4668 7.74707L33.9062 5.04688H34.8496ZM42.5059 8.76562V15H41.2412V7.60352H42.4717L42.5059 8.76562ZM44.8164 7.5625L44.8096 8.73828C44.7048 8.71549 44.6045 8.70182 44.5088 8.69727C44.4176 8.68815 44.3128 8.68359 44.1943 8.68359C43.9027 8.68359 43.6452 8.72917 43.4219 8.82031C43.1986 8.91146 43.0094 9.03906 42.8545 9.20312C42.6995 9.36719 42.5765 9.56315 42.4854 9.79102C42.3988 10.0143 42.3418 10.2604 42.3145 10.5293L41.959 10.7344C41.959 10.2878 42.0023 9.86849 42.0889 9.47656C42.18 9.08464 42.319 8.73828 42.5059 8.4375C42.6927 8.13216 42.9297 7.89518 43.2168 7.72656C43.5085 7.55339 43.8548 7.4668 44.2559 7.4668C44.347 7.4668 44.4518 7.47819 44.5703 7.50098C44.6888 7.51921 44.7708 7.53971 44.8164 7.5625ZM47.3594 7.60352V15H46.0879V7.60352H47.3594ZM45.9922 5.6416C45.9922 5.43652 46.0537 5.26335 46.1768 5.12207C46.3044 4.98079 46.4912 4.91016 46.7373 4.91016C46.9788 4.91016 47.1634 4.98079 47.291 5.12207C47.4232 5.26335 47.4893 5.43652 47.4893 5.6416C47.4893 5.83757 47.4232 6.00618 47.291 6.14746C47.1634 6.28418 46.9788 6.35254 46.7373 6.35254C46.4912 6.35254 46.3044 6.28418 46.1768 6.14746C46.0537 6.00618 45.9922 5.83757 45.9922 5.6416ZM52.4863 7.60352V8.57422H48.4873V7.60352H52.4863ZM49.8408 5.80566H51.1055V13.168C51.1055 13.4186 51.1442 13.6077 51.2217 13.7354C51.2992 13.863 51.3994 13.9473 51.5225 13.9883C51.6455 14.0293 51.7777 14.0498 51.9189 14.0498C52.0238 14.0498 52.1331 14.0407 52.2471 14.0225C52.3656 13.9997 52.4544 13.9814 52.5137 13.9678L52.5205 15C52.4202 15.0319 52.2881 15.0615 52.124 15.0889C51.9645 15.1208 51.7708 15.1367 51.543 15.1367C51.2331 15.1367 50.9482 15.0752 50.6885 14.9521C50.4287 14.8291 50.2214 14.624 50.0664 14.3369C49.916 14.0452 49.8408 13.6533 49.8408 13.1611V5.80566ZM57.0391 15.1367C56.5241 15.1367 56.057 15.0501 55.6377 14.877C55.223 14.6992 54.8652 14.4508 54.5645 14.1318C54.2682 13.8128 54.0404 13.4346 53.8809 12.9971C53.7214 12.5596 53.6416 12.0811 53.6416 11.5615V11.2744C53.6416 10.6729 53.7305 10.1374 53.9082 9.66797C54.0859 9.19401 54.3275 8.79297 54.6328 8.46484C54.9382 8.13672 55.2845 7.88835 55.6719 7.71973C56.0592 7.55111 56.4603 7.4668 56.875 7.4668C57.4036 7.4668 57.8594 7.55794 58.2422 7.74023C58.6296 7.92253 58.9463 8.17773 59.1924 8.50586C59.4385 8.82943 59.6208 9.21224 59.7393 9.6543C59.8577 10.0918 59.917 10.5703 59.917 11.0898V11.6572H54.3936V10.625H58.6523V10.5293C58.6341 10.2012 58.5658 9.88216 58.4473 9.57227C58.3333 9.26237 58.151 9.00716 57.9004 8.80664C57.6497 8.60612 57.3079 8.50586 56.875 8.50586C56.5879 8.50586 56.3236 8.56738 56.082 8.69043C55.8405 8.80892 55.6331 8.98665 55.46 9.22363C55.2868 9.46061 55.1523 9.75 55.0566 10.0918C54.9609 10.4336 54.9131 10.8278 54.9131 11.2744V11.5615C54.9131 11.9124 54.9609 12.2428 55.0566 12.5527C55.1569 12.8581 55.3005 13.127 55.4873 13.3594C55.6787 13.5918 55.9089 13.7741 56.1777 13.9062C56.4512 14.0384 56.7611 14.1045 57.1074 14.1045C57.554 14.1045 57.9323 14.0133 58.2422 13.8311C58.5521 13.6488 58.8232 13.4049 59.0557 13.0996L59.8213 13.708C59.6618 13.9495 59.459 14.1797 59.2129 14.3984C58.9668 14.6172 58.6637 14.7949 58.3037 14.9316C57.9482 15.0684 57.5267 15.1367 57.0391 15.1367ZM68.7422 5.92871L65.4473 15H64.1006L67.8945 5.04688H68.7627L68.7422 5.92871ZM71.5039 15L68.2021 5.92871L68.1816 5.04688H69.0498L72.8574 15H71.5039ZM71.333 11.3154V12.3955H65.7412V11.3154H71.333ZM75.2637 8.76562V15H73.999V7.60352H75.2295L75.2637 8.76562ZM77.5742 7.5625L77.5674 8.73828C77.4626 8.71549 77.3623 8.70182 77.2666 8.69727C77.1755 8.68815 77.0706 8.68359 76.9521 8.68359C76.6605 8.68359 76.403 8.72917 76.1797 8.82031C75.9564 8.91146 75.7673 9.03906 75.6123 9.20312C75.4574 9.36719 75.3343 9.56315 75.2432 9.79102C75.1566 10.0143 75.0996 10.2604 75.0723 10.5293L74.7168 10.7344C74.7168 10.2878 74.7601 9.86849 74.8467 9.47656C74.9378 9.08464 75.0768 8.73828 75.2637 8.4375C75.4505 8.13216 75.6875 7.89518 75.9746 7.72656C76.2663 7.55339 76.6126 7.4668 77.0137 7.4668C77.1048 7.4668 77.2096 7.47819 77.3281 7.50098C77.4466 7.51921 77.5286 7.53971 77.5742 7.5625ZM82.1816 7.60352V8.57422H78.1826V7.60352H82.1816ZM79.5361 5.80566H80.8008V13.168C80.8008 13.4186 80.8395 13.6077 80.917 13.7354C80.9945 13.863 81.0947 13.9473 81.2178 13.9883C81.3408 14.0293 81.473 14.0498 81.6143 14.0498C81.7191 14.0498 81.8285 14.0407 81.9424 14.0225C82.0609 13.9997 82.1497 13.9814 82.209 13.9678L82.2158 15C82.1156 15.0319 81.9834 15.0615 81.8193 15.0889C81.6598 15.1208 81.4661 15.1367 81.2383 15.1367C80.9284 15.1367 80.6436 15.0752 80.3838 14.9521C80.124 14.8291 79.9167 14.624 79.7617 14.3369C79.6113 14.0452 79.5361 13.6533 79.5361 13.1611V5.80566ZM85.0391 7.60352V15H83.7676V7.60352H85.0391ZM83.6719 5.6416C83.6719 5.43652 83.7334 5.26335 83.8564 5.12207C83.984 4.98079 84.1709 4.91016 84.417 4.91016C84.6585 4.91016 84.8431 4.98079 84.9707 5.12207C85.1029 5.26335 85.1689 5.43652 85.1689 5.6416C85.1689 5.83757 85.1029 6.00618 84.9707 6.14746C84.8431 6.28418 84.6585 6.35254 84.417 6.35254C84.1709 6.35254 83.984 6.28418 83.8564 6.14746C83.7334 6.00618 83.6719 5.83757 83.6719 5.6416ZM90.0293 14.0977C90.3301 14.0977 90.6081 14.0361 90.8633 13.9131C91.1185 13.79 91.3281 13.6214 91.4922 13.4072C91.6562 13.1885 91.7497 12.9401 91.7725 12.6621H92.9756C92.9528 13.0996 92.8047 13.5075 92.5312 13.8857C92.2624 14.2594 91.9092 14.5625 91.4717 14.7949C91.0342 15.0228 90.5534 15.1367 90.0293 15.1367C89.4733 15.1367 88.988 15.0387 88.5732 14.8428C88.1631 14.6468 87.8213 14.3779 87.5479 14.0361C87.279 13.6943 87.0762 13.3024 86.9395 12.8604C86.8073 12.4137 86.7412 11.9421 86.7412 11.4453V11.1582C86.7412 10.6615 86.8073 10.1921 86.9395 9.75C87.0762 9.30339 87.279 8.90918 87.5479 8.56738C87.8213 8.22559 88.1631 7.95671 88.5732 7.76074C88.988 7.56478 89.4733 7.4668 90.0293 7.4668C90.6081 7.4668 91.1139 7.58529 91.5469 7.82227C91.9798 8.05469 92.3193 8.3737 92.5654 8.7793C92.8161 9.18034 92.9528 9.63607 92.9756 10.1465H91.7725C91.7497 9.84115 91.6631 9.56543 91.5127 9.31934C91.3669 9.07324 91.1663 8.87728 90.9111 8.73145C90.6605 8.58105 90.3665 8.50586 90.0293 8.50586C89.6419 8.50586 89.3161 8.58333 89.0518 8.73828C88.792 8.88867 88.5846 9.09375 88.4297 9.35352C88.2793 9.60872 88.1699 9.89355 88.1016 10.208C88.0378 10.5179 88.0059 10.8346 88.0059 11.1582V11.4453C88.0059 11.7689 88.0378 12.0879 88.1016 12.4023C88.1654 12.7168 88.2725 13.0016 88.4229 13.2568C88.5778 13.512 88.7852 13.7171 89.0449 13.8721C89.3092 14.0225 89.6374 14.0977 90.0293 14.0977ZM95.7715 4.5V15H94.5V4.5H95.7715ZM100.871 15.1367C100.356 15.1367 99.889 15.0501 99.4697 14.877C99.055 14.6992 98.6973 14.4508 98.3965 14.1318C98.1003 13.8128 97.8724 13.4346 97.7129 12.9971C97.5534 12.5596 97.4736 12.0811 97.4736 11.5615V11.2744C97.4736 10.6729 97.5625 10.1374 97.7402 9.66797C97.918 9.19401 98.1595 8.79297 98.4648 8.46484C98.7702 8.13672 99.1165 7.88835 99.5039 7.71973C99.8913 7.55111 100.292 7.4668 100.707 7.4668C101.236 7.4668 101.691 7.55794 102.074 7.74023C102.462 7.92253 102.778 8.17773 103.024 8.50586C103.271 8.82943 103.453 9.21224 103.571 9.6543C103.69 10.0918 103.749 10.5703 103.749 11.0898V11.6572H98.2256V10.625H102.484V10.5293C102.466 10.2012 102.398 9.88216 102.279 9.57227C102.165 9.26237 101.983 9.00716 101.732 8.80664C101.482 8.60612 101.14 8.50586 100.707 8.50586C100.42 8.50586 100.156 8.56738 99.9141 8.69043C99.6725 8.80892 99.4652 8.98665 99.292 9.22363C99.1188 9.46061 98.9844 9.75 98.8887 10.0918C98.793 10.4336 98.7451 10.8278 98.7451 11.2744V11.5615C98.7451 11.9124 98.793 12.2428 98.8887 12.5527C98.9889 12.8581 99.1325 13.127 99.3193 13.3594C99.5107 13.5918 99.7409 13.7741 100.01 13.9062C100.283 14.0384 100.593 14.1045 100.939 14.1045C101.386 14.1045 101.764 14.0133 102.074 13.8311C102.384 13.6488 102.655 13.4049 102.888 13.0996L103.653 13.708C103.494 13.9495 103.291 14.1797 103.045 14.3984C102.799 14.6172 102.496 14.7949 102.136 14.9316C101.78 15.0684 101.359 15.1367 100.871 15.1367ZM109.532 13.0381C109.532 12.8558 109.491 12.6872 109.409 12.5322C109.332 12.3727 109.17 12.2292 108.924 12.1016C108.682 11.9694 108.318 11.8555 107.83 11.7598C107.42 11.6732 107.049 11.5706 106.716 11.4521C106.388 11.3337 106.107 11.1901 105.875 11.0215C105.647 10.8529 105.472 10.6546 105.349 10.4268C105.226 10.1989 105.164 9.93229 105.164 9.62695C105.164 9.33529 105.228 9.05957 105.355 8.7998C105.488 8.54004 105.672 8.3099 105.909 8.10938C106.151 7.90885 106.44 7.75163 106.777 7.6377C107.115 7.52376 107.491 7.4668 107.905 7.4668C108.498 7.4668 109.004 7.57161 109.423 7.78125C109.842 7.99089 110.163 8.27116 110.387 8.62207C110.61 8.96842 110.722 9.35352 110.722 9.77734H109.457C109.457 9.57227 109.396 9.37402 109.272 9.18262C109.154 8.98665 108.979 8.82487 108.746 8.69727C108.518 8.56966 108.238 8.50586 107.905 8.50586C107.554 8.50586 107.27 8.56055 107.051 8.66992C106.837 8.77474 106.679 8.90918 106.579 9.07324C106.483 9.2373 106.436 9.41048 106.436 9.59277C106.436 9.72949 106.458 9.85254 106.504 9.96191C106.554 10.0667 106.641 10.1647 106.764 10.2559C106.887 10.3424 107.06 10.4245 107.283 10.502C107.507 10.5794 107.791 10.6569 108.138 10.7344C108.744 10.8711 109.243 11.0352 109.635 11.2266C110.027 11.418 110.318 11.6527 110.51 11.9307C110.701 12.2087 110.797 12.5459 110.797 12.9424C110.797 13.266 110.729 13.5622 110.592 13.8311C110.46 14.0999 110.266 14.3324 110.011 14.5283C109.76 14.7197 109.459 14.8701 109.108 14.9795C108.762 15.0843 108.372 15.1367 107.939 15.1367C107.288 15.1367 106.736 15.0205 106.285 14.7881C105.834 14.5557 105.492 14.2549 105.26 13.8857C105.027 13.5166 104.911 13.127 104.911 12.7168H106.183C106.201 13.0632 106.301 13.3389 106.483 13.5439C106.666 13.7445 106.889 13.888 107.153 13.9746C107.418 14.0566 107.68 14.0977 107.939 14.0977C108.286 14.0977 108.575 14.0521 108.808 13.9609C109.045 13.8698 109.225 13.7445 109.348 13.585C109.471 13.4255 109.532 13.2432 109.532 13.0381Z" fill="#17272F"/>
</svg>
