<svg width="16" height="16" viewBox="0 0 16 16" fill="none" xmlns="http://www.w3.org/2000/svg">
<g clip-path="url(#clip0_16_34)">
<path d="M11.3333 14.6667H13.3333C13.687 14.6667 14.0261 14.5262 14.2761 14.2762C14.5262 14.0261 14.6667 13.687 14.6667 13.3333V8.66668C14.6667 8.31306 14.5262 7.97392 14.2761 7.72387C14.0261 7.47382 13.687 7.33334 13.3333 7.33334H11.3333M6.66667 6.00001V3.33334C6.66667 2.80291 6.87738 2.2942 7.25245 1.91913C7.62752 1.54406 8.13623 1.33334 8.66667 1.33334L11.3333 7.33334V14.6667H3.81333C3.49178 14.6703 3.17975 14.5576 2.93473 14.3493C2.68971 14.1411 2.52821 13.8513 2.48 13.5333L1.56 7.53334C1.53099 7.34225 1.54388 7.14713 1.59777 6.96151C1.65166 6.77589 1.74526 6.60421 1.87209 6.45835C1.99892 6.3125 2.15595 6.19596 2.33228 6.11682C2.50862 6.03768 2.70006 5.99782 2.89333 6.00001H6.66667Z" stroke="#388BF2" stroke-width="1.33333" stroke-linecap="round" stroke-linejoin="round"/>
<circle cx="5.5" cy="5.5" r="5.5" fill="#388BF2" fill-opacity="0.32"/>
</g>
<defs>
<clipPath id="clip0_16_34">
<rect width="16" height="16" fill="white" transform="matrix(-1 0 0 1 16 0)"/>
</clipPath>
</defs>
</svg>
